<svg width="535" height="679" viewBox="0 0 535 679" fill="none" xmlns="http://www.w3.org/2000/svg">
<path d="M314.938 382.071L416.471 244.493L314.938 106.914" stroke="#424242" stroke-width="16.5659" stroke-linecap="round" stroke-linejoin="round"/>
<path d="M284.874 128.317L267.487 106.914" stroke="#424242" stroke-width="16.5659" stroke-linecap="round" stroke-linejoin="round"/>
<path d="M153.277 244.92C167.798 244.92 334.79 244.92 416.471 244.92" stroke="#424242" stroke-width="16.5659" stroke-linecap="round"/>
<path d="M100.324 538.549C97.508 540.614 94.1755 542.163 90.3267 543.195C86.4779 544.322 82.4413 544.885 78.217 544.885C72.7723 544.885 68.1725 544.04 64.4176 542.351C60.6627 540.567 57.5648 538.079 55.1241 534.888C52.7773 531.602 51.0406 527.706 49.9141 523.2C48.8815 518.601 48.3652 513.531 48.3652 507.993C48.3652 496.071 50.9937 486.965 56.2506 480.676C61.5075 474.292 69.0643 471.101 78.9211 471.101C83.427 471.101 87.2289 471.476 90.3267 472.227C93.5184 472.884 96.3815 473.87 98.9161 475.184L95.6775 484.9C93.5184 483.68 91.1246 482.741 88.4962 482.084C85.8677 481.333 83.0515 480.957 80.0475 480.957C66.7175 480.957 60.0525 489.969 60.0525 507.993C60.0525 511.56 60.381 514.986 61.0382 518.272C61.7891 521.464 62.9626 524.327 64.5584 526.861C66.2481 529.302 68.4072 531.274 71.0357 532.776C73.758 534.277 77.0905 535.028 81.0332 535.028C84.4127 535.028 87.4166 534.512 90.0451 533.48C92.7674 532.447 94.9734 531.274 96.6631 529.959L100.324 538.549Z" fill="#424242"/>
<path d="M161.038 543.195V503.065C161.038 499.403 160.803 496.212 160.334 493.489C159.958 490.673 159.207 488.373 158.081 486.59C156.954 484.712 155.405 483.304 153.434 482.365C151.556 481.427 149.069 480.957 145.971 480.957C141.559 480.957 137.569 482.412 134.002 485.322C130.435 488.139 128.135 491.8 127.102 496.306V543.195H115.838V444.628H127.102V480.676H127.666C130.106 477.766 133.016 475.466 136.396 473.776C139.869 471.992 144.14 471.101 149.21 471.101C153.152 471.101 156.579 471.57 159.489 472.509C162.399 473.354 164.793 474.903 166.67 477.155C168.641 479.408 170.049 482.459 170.894 486.308C171.833 490.063 172.302 494.851 172.302 500.671V543.195H161.038Z" fill="#424242"/>
<path d="M195.237 472.79H206.502V543.195H195.237V472.79ZM192.843 451.387C192.843 449.228 193.547 447.398 194.955 445.896C196.457 444.3 198.335 443.502 200.588 443.502C202.841 443.502 204.765 444.3 206.361 445.896C207.957 447.398 208.755 449.228 208.755 451.387C208.755 453.546 207.957 455.33 206.361 456.738C204.765 458.146 202.841 458.85 200.588 458.85C198.335 458.85 196.457 458.146 194.955 456.738C193.547 455.33 192.843 453.546 192.843 451.387Z" fill="#424242"/>
<path d="M263.752 483.633C260.936 482.694 258.261 482.225 255.726 482.225C251.689 482.225 248.498 483.351 246.151 485.604C243.804 487.763 242.349 490.532 241.786 493.912V543.195H230.521V472.79H238.406L240.518 481.38H241.082C242.865 478.188 244.977 475.747 247.418 474.058C249.953 472.274 253.144 471.382 256.993 471.382C259.716 471.382 262.766 471.852 266.146 472.79L263.752 483.633Z" fill="#424242"/>
<path d="M278.374 472.79H286.119L288.231 481.239H288.794C290.953 477.953 293.723 475.466 297.102 473.776C300.575 471.992 304.518 471.101 308.93 471.101C318.318 471.101 325.311 473.87 329.911 479.408C334.511 484.947 336.811 494.006 336.811 506.585C336.811 512.499 336.013 517.85 334.417 522.637C332.915 527.331 330.756 531.32 327.94 534.606C325.123 537.892 321.697 540.426 317.66 542.21C313.718 543.993 309.306 544.885 304.424 544.885C300.951 544.885 298.182 544.651 296.116 544.181C294.145 543.806 291.986 543.102 289.639 542.069V571.358H278.374V472.79ZM306.818 480.957C302.03 480.957 298.229 482.225 295.412 484.759C292.69 487.2 290.766 490.955 289.639 496.024V530.945C291.329 532.259 293.253 533.292 295.412 534.043C297.571 534.7 300.435 535.028 304.002 535.028C310.479 535.028 315.595 532.635 319.35 527.847C323.199 522.966 325.123 515.831 325.123 506.444C325.123 502.595 324.795 499.122 324.138 496.024C323.481 492.832 322.401 490.157 320.899 487.998C319.491 485.745 317.613 484.008 315.267 482.788C313.014 481.568 310.197 480.957 306.818 480.957Z" fill="#424242"/>
<path d="M348.962 536.718C348.962 534.184 349.666 532.212 351.074 530.804C352.576 529.302 354.548 528.551 356.988 528.551C359.523 528.551 361.541 529.302 363.043 530.804C364.545 532.212 365.296 534.184 365.296 536.718C365.296 539.159 364.545 541.13 363.043 542.632C361.541 544.134 359.523 544.885 356.988 544.885C354.548 544.885 352.576 544.134 351.074 542.632C349.666 541.13 348.962 539.159 348.962 536.718Z" fill="#424242"/>
<path d="M416.251 483.633C413.434 482.694 410.759 482.225 408.225 482.225C404.188 482.225 400.996 483.351 398.649 485.604C396.303 487.763 394.848 490.532 394.284 493.912V543.195H383.019V472.79H390.905L393.017 481.38H393.58C395.364 478.188 397.476 475.747 399.917 474.058C402.451 472.274 405.643 471.382 409.492 471.382C412.214 471.382 415.265 471.852 418.644 472.79L416.251 483.633Z" fill="#424242"/>
<path d="M441.011 472.79V512.921C441.011 516.582 441.199 519.821 441.575 522.637C442.044 525.36 442.795 527.659 443.828 529.537C444.86 531.32 446.268 532.682 448.052 533.62C449.835 534.559 452.088 535.028 454.811 535.028C457.345 535.028 459.598 534.653 461.57 533.902C463.541 533.057 465.278 531.931 466.78 530.523C468.375 529.114 469.737 527.519 470.863 525.735C472.083 523.858 473.069 521.886 473.82 519.821V472.79H485.085V523.2C485.085 526.58 485.179 530.1 485.367 533.761C485.648 537.328 486.071 540.473 486.634 543.195H478.889L476.073 532.071H475.369C473.21 535.733 470.3 538.783 466.639 541.224C462.978 543.665 458.331 544.885 452.699 544.885C448.944 544.885 445.611 544.416 442.701 543.477C439.885 542.632 437.491 541.083 435.52 538.83C433.642 536.577 432.187 533.573 431.155 529.819C430.216 525.97 429.746 521.135 429.746 515.315V472.79H441.011Z" fill="#424242"/>
</svg>
