<svg width="535" height="679" viewBox="0 0 535 679" fill="none" xmlns="http://www.w3.org/2000/svg">
<g clip-path="url(#clip0_587_552)">
<ellipse cx="290.579" cy="628.962" rx="85.6745" ry="28.5583" fill="#4684D0" fill-opacity="0.6"/>
<path d="M146.106 340.075C138.825 333.702 129.302 334.578 123.301 342.76C122.164 344.226 121.176 345.891 120.54 347.603C116.05 340.707 108.544 335.741 100.121 334.249C98.5587 333.859 96.9408 333.822 95.5283 333.632C90.8786 333.365 86.1168 333.805 81.539 335.345C79.0454 336.269 76.552 337.192 74.3549 338.515C72.1593 339.838 69.9622 341.16 68.0622 342.883C54.6727 354.386 51.1291 373.148 56.0703 389.634C61.3287 405.263 74.3288 417.619 90.5608 421.061C93.8891 421.688 97.2167 422.316 100.658 422.239C118.774 421.798 135.619 412.379 145.927 397.583C156.552 381.933 161.765 353.868 146.106 340.075Z" fill="white"/>
<ellipse cx="86.5447" cy="317.166" rx="11.495" ry="30.2793" transform="rotate(-36.9718 86.5447 317.166)" fill="white"/>
<ellipse cx="59.6889" cy="368.792" rx="10.1428" ry="26.7175" transform="rotate(-71.4526 59.6889 368.792)" fill="white"/>
<ellipse cx="49.7768" cy="331.975" rx="11.495" ry="30.2793" transform="rotate(-54.1813 49.7768 331.975)" fill="white"/>
<path d="M143.565 337.64C139.956 335.36 135.504 334.948 131.325 336.194C126.063 338.554 121.43 342.618 119.959 348.363C123.679 344.357 130.13 343.595 133.51 347.285C137.987 352.02 139.667 357.284 139.669 362.866C139.738 364.675 139.602 366.637 139.317 368.399C138.896 372.124 138.121 375.802 136.844 379.231C135.566 382.663 133.786 385.846 131.504 388.783C123.403 399.768 111.657 407.568 97.4896 409.105C80.0227 410.923 63.7051 402.273 55.6056 387.515C57.7927 404.188 70.5378 417.044 86.922 421.923C102.952 426.753 118.604 421.634 131.695 412.211C134.365 410.226 136.889 408.042 139.057 405.81C148.141 396.576 154.29 384.251 155.428 371.621C155.883 368.801 155.985 365.934 155.732 363.02C155.478 354.525 152.838 346.254 146.82 339.873C145.666 339.179 144.718 338.333 143.565 337.64Z" fill="#B2CFE5"/>
<path d="M273.229 333.248C273.275 333.246 273.321 333.245 273.367 333.244V333.252C304.298 334.175 335.021 346.334 356.057 364.446C409.156 410.315 364.576 562.854 273.367 565.113C273.321 565.112 273.275 565.117 273.229 565.116C273.183 565.117 273.137 565.118 273.091 565.119L273.089 565.113C181.881 562.853 137.302 410.314 190.4 364.446C211.436 346.335 242.158 334.176 273.089 333.252L273.091 333.244C273.137 333.245 273.183 333.246 273.229 333.248Z" fill="white"/>
<path d="M225.867 370.347C225.882 370.348 225.897 370.35 225.912 370.351C235.77 371.871 244.845 377.255 250.436 384.31C264.537 402.169 240.519 452.967 211.131 450.199C211.116 450.197 211.101 450.197 211.086 450.195C211.071 450.194 211.057 450.192 211.042 450.191C181.941 445.868 177.372 391.604 197.321 377.872C205.22 372.452 215.846 369.459 225.822 370.343C225.837 370.345 225.852 370.345 225.867 370.347Z" fill="#F0F8FA"/>
<path d="M271.938 565.074C264.059 566.395 267.101 565.891 270.129 565.389C270.797 565.278 271.464 565.168 272.014 565.077C271.989 565.076 271.963 565.075 271.938 565.074Z" fill="#B2CFE5"/>
<path d="M298.044 560.624C375.895 535.619 426.02 407.676 377.835 366.051C356.798 347.939 326.075 335.78 295.144 334.857V334.849L295.006 334.853L294.868 334.849L294.866 334.857C293.665 334.893 292.465 334.945 291.265 335.015C315.849 339.111 339.103 349.843 356.062 364.444C404.119 405.958 372.164 534.851 298.044 560.624Z" fill="#B2CFE5"/>
<path d="M293.557 313.092H270.068C268.442 313.092 267.177 314.343 267.177 315.773V362.063C267.177 363.671 268.442 364.922 270.068 364.922H293.557C295.183 364.922 296.448 363.671 296.448 362.063V315.773C296.448 314.164 295.183 313.092 293.557 313.092Z" fill="white"/>
<path d="M293.55 313.09H283.793C284.697 313.09 285.599 314.341 285.599 315.771V362.061C285.599 363.669 284.877 364.921 283.793 364.921H293.55C295.176 364.921 296.441 363.669 296.441 362.061V315.771C296.441 314.162 295.176 313.09 293.55 313.09Z" fill="#EBF6F8"/>
<path d="M387.881 389.015C388.423 390.087 389.146 390.982 389.508 392.054C388.965 390.982 388.423 390.087 387.881 389.015Z" fill="white"/>
<path d="M385.888 385.619C386.43 386.692 387.153 387.586 387.695 388.658C387.153 387.586 386.43 386.513 385.888 385.619Z" fill="white"/>
<path d="M381.366 379.008C382.089 379.902 382.812 380.974 383.354 381.868C382.812 380.795 382.089 379.902 381.366 379.008Z" fill="white"/>
<path d="M383.711 382.225C384.434 383.297 384.976 384.191 385.699 385.264C384.976 384.191 384.434 383.297 383.711 382.225Z" fill="white"/>
<path d="M376.312 372.395C377.034 373.288 377.938 374.182 378.66 375.254C377.938 374.36 377.214 373.467 376.312 372.395Z" fill="white"/>
<path d="M373.595 369.357C374.498 370.25 375.221 371.144 375.944 372.217C375.221 371.144 374.498 370.25 373.595 369.357Z" fill="white"/>
<path d="M379.026 375.611C379.749 376.506 380.472 377.578 381.194 378.471C380.472 377.578 379.749 376.506 379.026 375.611Z" fill="white"/>
<path d="M389.684 392.414C390.226 393.486 390.768 394.559 391.31 395.631C390.768 394.559 390.226 393.486 389.684 392.414Z" fill="white"/>
<path d="M395.832 406.711C396.194 407.784 396.555 408.856 396.916 409.928C396.555 408.856 396.194 407.784 395.832 406.711Z" fill="white"/>
<path d="M398.524 415.65C398.706 416.186 398.886 416.723 398.886 417.258C398.886 416.723 398.706 416.186 398.524 415.65Z" fill="white"/>
<path d="M399.07 417.791C399.252 418.863 399.612 419.936 399.794 421.009C399.612 419.936 399.252 418.863 399.07 417.791Z" fill="white"/>
<path d="M398.166 414.041C398.347 414.578 398.528 415.113 398.528 415.65C398.528 415.113 398.347 414.578 398.166 414.041Z" fill="white"/>
<path d="M399.797 421.369C399.977 421.905 399.977 422.441 400.158 422.977C400.158 422.62 399.977 421.905 399.797 421.369Z" fill="white"/>
<path d="M394.563 403.14C394.924 404.212 395.466 405.284 395.828 406.356C395.466 405.284 394.924 404.212 394.563 403.14Z" fill="white"/>
<path d="M393.113 399.562C393.655 400.635 394.016 401.707 394.378 402.779C394.016 401.707 393.474 400.635 393.113 399.562Z" fill="white"/>
<path d="M391.479 395.986C392.021 397.058 392.382 398.131 392.924 399.203C392.382 398.131 392.021 397.058 391.479 395.986Z" fill="white"/>
<path d="M397.083 410.289C397.445 411.361 397.806 412.433 397.987 413.505C397.806 412.433 397.445 411.54 397.083 410.289Z" fill="white"/>
<path d="M368.896 364.351C369.438 364.888 369.799 365.244 370.341 365.781C369.799 365.244 369.438 364.709 368.896 364.351Z" fill="white"/>
<path d="M340.715 359.562C341.438 359.919 341.98 360.276 342.702 360.634C341.98 360.276 341.257 359.919 340.715 359.562Z" fill="white"/>
<path d="M338.548 358.489C339.27 358.846 339.813 359.203 340.535 359.561C339.993 359.203 339.27 358.846 338.548 358.489Z" fill="white"/>
<path d="M400.163 423.154C400.343 423.691 400.344 424.227 400.524 424.763C400.344 424.227 400.343 423.691 400.163 423.154Z" fill="white"/>
<path d="M342.704 360.632C343.427 360.99 343.969 361.346 344.692 361.704C343.969 361.525 343.427 360.99 342.704 360.632Z" fill="white"/>
<path d="M367.27 362.743C367.812 363.279 368.172 363.637 368.534 363.994C368.172 363.637 367.812 363.279 367.27 362.743Z" fill="white"/>
<path d="M323.363 351.873C325.531 352.767 327.7 353.481 329.868 354.376C327.7 353.481 325.531 352.588 323.363 351.873Z" fill="white"/>
<path d="M318.844 350.443C320.289 350.979 321.735 351.336 323.181 351.873C321.915 351.336 320.47 350.801 318.844 350.443Z" fill="white"/>
<path d="M314.33 349.017C315.956 349.374 317.402 349.911 318.847 350.268C317.402 349.911 315.956 349.374 314.33 349.017Z" fill="white"/>
<path d="M344.873 361.886C346.138 362.6 347.403 363.494 348.668 364.209C347.403 363.494 346.138 362.779 344.873 361.886Z" fill="white"/>
<path d="M330.042 354.38C331.488 354.916 332.752 355.631 334.198 356.167C332.752 355.631 331.488 355.095 330.042 354.38Z" fill="white"/>
<path d="M334.386 356.344C335.831 357.058 337.096 357.595 338.541 358.309C337.096 357.773 335.65 357.058 334.386 356.344Z" fill="white"/>
<path d="M356.422 369.747C356.964 370.105 357.506 370.64 358.048 370.998C357.687 370.64 357.145 370.105 356.422 369.747Z" fill="white"/>
<path d="M358.417 371.355C359.501 372.248 360.585 373.142 361.669 374.036C360.766 372.964 359.682 372.07 358.417 371.355Z" fill="white"/>
<path d="M363.84 359.706C364.382 360.064 364.743 360.599 365.285 360.957C364.743 360.421 364.382 360.064 363.84 359.706Z" fill="white"/>
<path d="M348.841 364.387C349.383 364.744 350.106 365.102 350.648 365.638C350.106 365.28 349.564 364.923 348.841 364.387Z" fill="white"/>
<path d="M365.648 361.133C366.19 361.669 366.732 362.027 367.094 362.563C366.552 362.027 366.01 361.669 365.648 361.133Z" fill="white"/>
<path d="M350.834 365.638C351.376 365.995 352.099 366.352 352.641 366.889C351.918 366.531 351.376 365.995 350.834 365.638Z" fill="white"/>
<path d="M354.618 368.497C355.161 368.854 355.703 369.39 356.245 369.748C355.703 369.211 355.341 368.854 354.618 368.497Z" fill="white"/>
<path d="M352.811 367.067C353.353 367.425 353.894 367.96 354.617 368.318C353.894 367.782 353.353 367.425 352.811 367.067Z" fill="white"/>
<path d="M362.036 374.213C362.578 374.75 363.12 375.107 363.662 375.643C363.12 375.107 362.578 374.75 362.036 374.213Z" fill="white"/>
<path d="M401.604 432.808C401.785 433.88 401.785 434.952 401.785 436.203C401.785 434.952 401.604 433.88 401.604 432.808Z" fill="white"/>
<path d="M398.167 474.453C397.986 475.525 397.624 476.597 397.264 477.669C397.624 476.597 397.986 475.525 398.167 474.453Z" fill="white"/>
<path d="M401.97 447.997C401.97 449.069 401.789 450.32 401.789 451.392C401.97 450.142 401.97 449.069 401.97 447.997Z" fill="white"/>
<path d="M373.41 368.999C373.048 368.462 372.506 368.105 372.145 367.569C371.603 367.033 371.242 366.497 370.699 366.139C371.242 366.676 371.603 367.033 372.145 367.569C372.506 368.105 372.868 368.462 373.41 368.999Z" fill="white"/>
<path d="M401.789 436.561C401.789 437.633 401.97 438.705 401.97 439.956C401.97 438.705 401.97 437.633 401.789 436.561Z" fill="white"/>
<path d="M400.52 463.189C400.339 464.262 400.159 465.334 399.978 466.585C400.159 465.334 400.339 464.262 400.52 463.189Z" fill="white"/>
<path d="M401.064 459.258C400.884 460.33 400.703 461.581 400.522 462.653C400.703 461.581 400.884 460.509 401.064 459.258Z" fill="white"/>
<path d="M400.522 425.121C400.703 426.193 400.884 427.266 401.064 428.517C400.884 427.444 400.703 426.372 400.522 425.121Z" fill="white"/>
<path d="M399.082 470.697C398.901 471.77 398.54 472.842 398.359 474.093C398.54 472.842 398.901 471.77 399.082 470.697Z" fill="white"/>
<path d="M401.435 455.505C401.254 456.756 401.254 457.828 401.073 458.9C401.254 457.828 401.435 456.756 401.435 455.505Z" fill="white"/>
<path d="M401.073 429.055C401.254 430.127 401.254 431.199 401.435 432.45C401.435 431.199 401.254 430.127 401.073 429.055Z" fill="white"/>
<path d="M399.794 466.944C399.612 468.017 399.432 469.09 399.07 470.341C399.432 469.09 399.612 468.017 399.794 466.944Z" fill="white"/>
<path d="M401.785 451.75C401.785 452.822 401.604 454.073 401.604 455.145C401.604 454.073 401.785 452.822 401.785 451.75Z" fill="white"/>
<path d="M354.449 368.319C354.449 368.5 354.634 368.5 354.634 368.5C354.634 368.319 354.634 368.319 354.449 368.319Z" fill="#EBF6F8"/>
<path d="M399.249 470.337C399.249 470.514 399.248 470.514 399.07 470.691C399.07 470.514 399.249 470.337 399.249 470.337Z" fill="#EBF6F8"/>
<path d="M399.976 466.407C399.976 466.584 399.976 466.761 399.797 466.937C399.797 466.761 399.797 466.584 399.976 466.407Z" fill="#EBF6F8"/>
<path d="M358.237 371.001C358.415 371.177 358.416 371.177 358.594 371.177C358.416 371.177 358.237 371.177 358.237 371.001Z" fill="#EBF6F8"/>
<path d="M344.688 361.886L344.872 362.067C344.688 361.885 344.688 361.886 344.688 361.886Z" fill="#EBF6F8"/>
<path d="M348.661 364.207C348.661 364.389 348.845 364.389 348.845 364.389C348.845 364.389 348.661 364.389 348.661 364.207Z" fill="#EBF6F8"/>
<path d="M398.345 474.091C398.345 474.268 398.345 474.268 398.166 474.445C398.166 474.268 398.166 474.091 398.345 474.091Z" fill="#EBF6F8"/>
<path d="M352.46 366.886L352.645 367.068C352.645 366.886 352.645 366.886 352.46 366.886Z" fill="#EBF6F8"/>
<path d="M394.375 402.601C394.375 402.778 394.553 402.778 394.553 402.954C394.553 402.954 394.375 402.778 394.375 402.601Z" fill="#EBF6F8"/>
<path d="M396.905 409.929C396.905 410.106 396.905 410.282 397.083 410.282C397.083 410.282 397.083 410.106 396.905 409.929Z" fill="#EBF6F8"/>
<path d="M395.832 406.354C395.832 406.531 396.01 406.708 396.01 406.708C395.832 406.531 395.832 406.354 395.832 406.354Z" fill="#EBF6F8"/>
<path d="M389.503 392.057C389.503 392.235 389.684 392.235 389.684 392.414C389.684 392.414 389.684 392.235 389.503 392.057Z" fill="#EBF6F8"/>
<path d="M391.306 395.631C391.486 395.809 391.486 395.809 391.486 395.988C391.486 395.809 391.306 395.631 391.306 395.631Z" fill="#EBF6F8"/>
<path d="M398.895 417.259C398.895 417.437 399.075 417.437 399.075 417.616C399.075 417.616 399.075 417.437 398.895 417.259Z" fill="#EBF6F8"/>
<path d="M399.797 421.012C399.797 421.188 399.797 421.365 399.975 421.365C399.797 421.365 399.797 421.188 399.797 421.012Z" fill="#EBF6F8"/>
<path d="M401.423 432.268C401.423 432.444 401.423 432.444 401.423 432.621C401.601 432.621 401.601 432.444 401.423 432.268Z" fill="#EBF6F8"/>
<path d="M397.989 413.682C397.989 413.859 397.989 413.859 398.168 414.035C398.168 413.859 398.168 413.682 397.989 413.682Z" fill="#EBF6F8"/>
<path d="M400.512 462.654C400.512 462.833 400.512 462.833 400.332 463.01C400.512 463.01 400.512 462.833 400.512 462.654Z" fill="#EBF6F8"/>
<path d="M370.35 365.785C370.528 365.961 370.528 365.961 370.706 366.137C370.528 365.961 370.528 365.785 370.35 365.785Z" fill="#EBF6F8"/>
<path d="M368.712 364.177L368.896 364.359C368.896 364.177 368.712 364.177 368.712 364.177Z" fill="#EBF6F8"/>
<path d="M373.413 369C373.591 369.177 373.591 369.177 373.769 369.354C373.591 369.177 373.413 369 373.413 369Z" fill="#EBF6F8"/>
<path d="M365.281 360.958C365.459 361.135 365.459 361.135 365.638 361.135C365.459 361.135 365.281 360.958 365.281 360.958Z" fill="#EBF6F8"/>
<path d="M367.089 362.567C367.268 362.744 367.268 362.744 367.446 362.744C367.268 362.744 367.089 362.744 367.089 362.567Z" fill="#EBF6F8"/>
<path d="M387.699 388.661C387.877 388.837 387.877 388.837 387.877 389.014C387.877 388.837 387.699 388.837 387.699 388.661Z" fill="#EBF6F8"/>
<path d="M385.699 385.265C385.699 385.441 385.877 385.441 385.877 385.618C385.877 385.441 385.699 385.265 385.699 385.265Z" fill="#EBF6F8"/>
<path d="M383.538 381.87C383.718 382.048 383.718 382.048 383.718 382.226C383.538 382.048 383.538 382.048 383.538 381.87Z" fill="#EBF6F8"/>
<path d="M378.654 375.257C378.832 375.433 378.832 375.433 379.011 375.61C378.832 375.61 378.832 375.433 378.654 375.257Z" fill="#EBF6F8"/>
<path d="M376.125 372.04C376.304 372.215 376.303 372.215 376.482 372.392C376.303 372.392 376.125 372.215 376.125 372.04Z" fill="#EBF6F8"/>
<path d="M381.174 378.473C381.352 378.649 381.352 378.649 381.352 378.826C381.352 378.826 381.174 378.649 381.174 378.473Z" fill="#EBF6F8"/>
<path d="M478.203 161.776C461.399 161.418 447.306 174.823 446.945 191.445L446.403 221.114C446.041 237.735 459.593 251.676 476.396 252.034C493.2 252.391 507.294 238.986 507.655 222.365L508.197 192.696C508.559 176.074 495.007 162.133 478.203 161.776Z" fill="#B2CFE5"/>
<path d="M451.838 96.1842C409.197 50.0717 347.764 35.0587 287.595 35.0587C227.246 32.3778 165.271 44.7105 120.642 89.0347C55.7755 153.556 75.1088 260.793 144.311 316.556C220.019 377.502 339.994 380.005 418.05 322.454C489.963 269.729 513.813 163.564 451.838 96.1842Z" fill="white"/>
<path d="M452.947 96.007C424.212 63.4783 381.837 44.7121 338.917 38.9924C388.02 54.7207 435.306 86.1773 456.402 134.076C458.585 139.08 460.585 144.085 462.04 149.268C465.131 159.635 466.95 170.358 467.132 181.44C467.314 185.728 467.314 189.839 467.314 194.129C466.405 219.687 459.13 245.245 446.4 267.229C442.944 272.77 439.124 278.31 434.942 283.314C422.756 297.434 408.572 310.124 392.749 321.205C360.741 343.903 321.821 359.989 282.175 363.742C331.097 364.457 380.019 350.695 418.756 322.277C477.316 279.383 504.414 201.278 478.954 137.293C476.953 132.468 474.77 127.642 472.224 122.816C469.678 117.991 466.769 113.522 463.495 108.875C460.403 104.586 456.947 100.297 452.947 96.007Z" fill="#B2CFE5"/>
<path d="M96.6294 153.378C81.1085 153.052 68.3952 165.301 68.0647 180.49L67.4039 207.602C67.0742 222.791 79.4571 235.53 94.8131 235.857C110.168 236.184 123.047 223.934 123.377 208.745L124.038 181.634C124.368 166.444 111.985 153.705 96.6294 153.378Z" fill="white"/>
<path d="M288.669 21.1199L278.008 20.763C268.251 20.4053 259.939 28.0906 259.578 37.9204L259.216 48.4655C258.855 58.1172 266.625 66.3383 276.563 66.6959L287.223 67.0536C296.98 67.4105 305.291 59.7252 305.653 49.8954L306.014 39.3503C306.195 29.6994 298.425 21.4776 288.669 21.1199Z" fill="white"/>
<path d="M335.288 467.311C333.473 476.439 338.699 483.9 348.288 484.894C350.035 485.123 351.876 485.132 353.59 484.826C350.023 491.897 349.476 500.527 352.228 508.228C352.645 509.712 353.379 511.07 353.89 512.332C355.869 516.312 358.484 520.043 361.92 523.086C363.861 524.702 365.802 526.319 367.932 527.495C370.062 528.671 372.193 529.848 374.513 530.584C390.336 536.083 407.492 529.9 418.758 517.795C429.167 505.844 433.215 489.071 428.378 473.955C427.322 470.894 426.266 467.833 424.575 465.02C415.645 450.23 399.906 440.856 382.824 439.51C364.885 438.316 339.263 447.639 335.288 467.311Z" fill="white"/>
<path d="M344.096 487.948C334.508 486.954 329.281 479.493 331.096 470.364C332.953 461.176 339.533 454.245 347.847 449.589C344.582 453.222 342.217 457.51 341.219 462.452C339.404 471.58 344.63 479.041 354.219 480.035C355.966 480.264 357.807 480.273 359.521 479.967C355.954 487.037 355.407 495.668 358.158 503.369C358.44 504.371 358.866 505.315 359.271 506.212C359.466 506.643 359.655 507.063 359.821 507.473C361.8 511.453 364.414 515.184 367.851 518.226L367.867 518.24C369.803 519.852 371.739 521.463 373.863 522.636L373.876 522.643C376.002 523.816 378.128 524.99 380.443 525.725C391.72 529.644 403.673 527.629 413.689 521.768C402.422 533.263 385.738 538.996 370.321 533.638C368.006 532.903 365.879 531.729 363.753 530.556L363.74 530.549C361.616 529.376 359.681 527.765 357.744 526.153L357.728 526.139C354.292 523.097 351.678 519.366 349.698 515.386C349.532 514.976 349.343 514.556 349.148 514.125C348.744 513.228 348.317 512.284 348.036 511.282C345.284 503.581 345.831 494.95 349.398 487.88C347.684 488.186 345.844 488.177 344.096 487.948Z" fill="#B2CFE5"/>
<path fill-rule="evenodd" clip-rule="evenodd" d="M117.27 92.4939C117.118 92.7515 116.968 93.0098 116.821 93.2685C104.772 114.484 120.404 127.241 145.122 123.406C172.157 119.203 206.043 98.3461 222.455 75.8484C233.941 60.1651 234.752 44.7369 224.097 38.5449C185.765 45.0181 149.554 60.3071 120.63 89.034C119.483 90.1741 118.364 91.3276 117.27 92.4939Z" fill="#EBF6F8"/>
<path d="M329.661 141.782L207.981 142.355C171.342 142.545 141.644 172.302 141.838 208.544C142.03 244.786 168.976 273.399 208.752 273.971C218.834 273.971 213.908 253.004 259.627 253.289C305.347 253.575 318.875 273.399 330.432 273.399C365.819 273.971 396.769 243.451 396.576 207.209C396.383 170.967 366.301 141.591 329.661 141.782Z" fill="#539BF2"/>
<path d="M244.218 283.186C244.218 297.263 255.882 308.569 269.878 308.569C284.108 308.338 295.538 297.032 295.305 282.957L244.218 283.186Z" fill="#ABCAE2"/>
<path d="M247.051 294.755C245.243 291.29 244.218 287.36 244.218 283.186L295.305 282.957C295.439 291.026 291.739 298.185 285.876 302.869C286.745 300.271 287.194 297.482 287.146 294.574L247.051 294.755Z" fill="#427EC6"/>
<path d="M308.035 207.779C308.035 192.881 320.74 180.963 336.622 180.963C352.502 180.963 365.21 192.881 365.21 207.779C365.21 222.675 352.502 234.592 336.622 234.592C320.74 234.592 308.035 222.675 308.035 207.779Z" fill="#4680C5"/>
<path d="M315.446 209.514C315.446 196.109 326.286 185.387 339.837 185.387C353.385 185.387 364.228 196.109 364.228 209.514C364.228 222.916 353.385 233.639 339.837 233.639C326.286 233.639 315.446 222.916 315.446 209.514Z" fill="#EBF6F8"/>
<path d="M326.356 208.713C326.356 200.048 333.364 193.116 342.124 193.116C350.882 193.116 357.891 200.048 357.891 208.713C357.891 217.377 350.882 224.309 342.124 224.309C333.364 224.309 326.356 217.377 326.356 208.713Z" fill="#0050B2"/>
<path d="M173.2 207.879C173.2 192.925 184.999 180.963 199.747 180.963C214.493 180.963 226.294 192.925 226.294 207.879C226.294 222.831 214.493 234.793 199.747 234.793C184.999 234.793 173.2 222.831 173.2 207.879Z" fill="#4680C5"/>
<path d="M180.982 210.668C180.982 197.263 191.822 186.541 205.373 186.541C218.921 186.541 229.764 197.263 229.764 210.668C229.764 224.07 218.921 234.793 205.373 234.793C191.822 234.793 180.982 224.07 180.982 210.668Z" fill="#EBF6F8"/>
<path d="M190.033 208.854C190.033 200.694 196.632 194.166 204.881 194.166C213.129 194.166 219.729 200.694 219.729 208.854C219.729 217.013 213.129 223.54 204.881 223.54C196.632 223.54 190.033 217.013 190.033 208.854Z" fill="#0050B2"/>
<path d="M177.527 193.956C177.527 187.182 183.005 181.763 189.853 181.763C196.7 181.763 202.179 187.182 202.179 193.956C202.179 200.729 196.7 206.148 189.853 206.148C183.005 206.148 177.527 200.729 177.527 193.956Z" fill="white"/>
<path d="M314 192.433C314 186.128 319.099 181.085 325.472 181.085C331.845 181.085 336.945 186.128 336.945 192.433C336.945 198.737 331.845 203.78 325.472 203.78C319.099 203.78 314 198.737 314 192.433Z" fill="white"/>
<path d="M209.064 219.838C209.064 216.23 211.982 213.344 215.629 213.344C219.276 213.344 222.194 216.23 222.194 219.838C222.194 223.446 219.276 226.331 215.629 226.331C211.982 226.331 209.064 223.446 209.064 219.838Z" fill="white"/>
<path d="M345.682 220.266C345.682 216.908 348.397 214.222 351.792 214.222C355.186 214.222 357.902 216.908 357.902 220.266C357.902 223.623 355.186 226.309 351.792 226.309C348.397 226.309 345.682 223.623 345.682 220.266Z" fill="white"/>
</g>
<defs>
<clipPath id="clip0_587_552">
<rect width="485.911" height="636.102" fill="white" transform="translate(21.4043 21.0847)"/>
</clipPath>
</defs>
</svg>
