<svg width="563" height="679" viewBox="0 0 563 679" fill="none" xmlns="http://www.w3.org/2000/svg">
<path d="M243 75.7213C243 75.7213 255.21 59.5948 269.296 75.7213L300.565 161.364L243 75.7213Z" stroke="#A880FF" stroke-width="3.28671" stroke-miterlimit="10" stroke-linecap="round" stroke-linejoin="round" stroke-dasharray="65.73 8.22"/>
<path d="M269.3 75.7213C269.3 75.7213 285.405 56.4658 300.569 75.7213V161.364L269.3 75.7213Z" stroke="#A880FF" stroke-width="3.28671" stroke-miterlimit="10" stroke-linecap="round" stroke-linejoin="round" stroke-dasharray="65.73 8.22"/>
<path d="M358.133 75.7369C358.133 75.7369 345.923 59.6104 331.837 75.7369L300.567 161.379L358.133 75.7369Z" stroke="#A880FF" stroke-width="3.28671" stroke-miterlimit="10" stroke-linecap="round" stroke-linejoin="round" stroke-dasharray="65.73 8.22"/>
<path d="M331.836 75.7355C331.836 75.7355 315.731 56.48 300.567 75.7355V161.378L331.836 75.7355Z" stroke="#A880FF" stroke-width="3.28671" stroke-miterlimit="10" stroke-linecap="round" stroke-linejoin="round" stroke-dasharray="65.73 8.22"/>
<path fill-rule="evenodd" clip-rule="evenodd" d="M269.265 75.3309C269.288 75.5885 269.303 75.7236 269.303 75.7236C255.542 59.8939 243.004 75.7236 243.007 75.7236C245.527 9.65328 298.919 11.9421 300.535 12.0265C300.563 12.0261 300.578 12.0261 300.578 12.0261V12.0421C301.613 11.9844 355.594 9.29546 358.128 75.738C358.128 75.738 345.6 59.9191 331.846 75.7218C331.846 75.7269 331.845 75.7319 331.845 75.737C331.845 75.737 331.843 75.7347 331.839 75.7302C331.836 75.7328 331.834 75.7354 331.832 75.738C331.832 75.738 331.304 75.1983 330.375 74.2174C326.092 70.1402 313.124 60.2777 300.569 75.737V75.7131C283.263 56.4996 269.315 75.7234 269.315 75.7234C269.298 75.5923 269.281 75.4615 269.265 75.3309Z" fill="#A880FF" fill-opacity="0.28"/>
<path d="M269.303 75.7236L268.063 76.8017C268.534 77.3439 269.303 77.5171 269.962 77.2293C270.62 76.9415 271.015 76.2594 270.937 75.5452L269.303 75.7236ZM269.265 75.3309L270.895 75.1223C270.781 74.2332 269.976 73.5993 269.085 73.6974C268.194 73.7956 267.546 74.5897 267.628 75.4823L269.265 75.3309ZM243.007 75.7236V77.3669C243.89 77.3669 244.615 76.6688 244.649 75.7862L243.007 75.7236ZM300.535 12.0265L300.449 13.6676C300.486 13.6696 300.524 13.6702 300.561 13.6697L300.535 12.0265ZM300.578 12.0261H302.221C302.221 11.1185 301.486 10.3827 300.578 10.3827V12.0261ZM300.578 12.0421H298.935C298.935 12.4938 299.121 12.9256 299.449 13.236C299.777 13.5464 300.218 13.7081 300.669 13.6829L300.578 12.0421ZM358.128 75.738L356.84 76.7583C357.281 77.3156 358.031 77.5259 358.698 77.2794C359.365 77.033 359.798 76.3857 359.77 75.6753L358.128 75.738ZM331.846 75.7218L330.606 74.6429C330.382 74.9005 330.244 75.2216 330.211 75.5616L331.846 75.7218ZM331.845 75.737L330.589 76.7968C331.015 77.3018 331.702 77.5024 332.333 77.3061C332.964 77.1098 333.416 76.5547 333.48 75.8971L331.845 75.737ZM331.839 75.7302L333.088 74.6629C332.778 74.2994 332.325 74.0891 331.847 74.0868C331.369 74.0846 330.913 74.2906 330.599 74.6511L331.839 75.7302ZM331.832 75.738L330.657 76.8868C330.978 77.215 331.421 77.394 331.88 77.3806C332.339 77.3672 332.771 77.1625 333.072 76.8161L331.832 75.738ZM330.375 74.2174L331.569 73.0874C331.549 73.0667 331.529 73.0466 331.508 73.027L330.375 74.2174ZM300.569 75.737H298.925C298.925 76.4327 299.363 77.053 300.019 77.2857C300.675 77.5184 301.406 77.313 301.844 76.773L300.569 75.737ZM300.569 75.7131H302.212C302.212 75.3069 302.062 74.9151 301.79 74.6133L300.569 75.7131ZM269.315 75.7234L267.686 75.9361C267.773 76.6034 268.258 77.1503 268.91 77.3161C269.563 77.4819 270.25 77.2332 270.645 76.6885L269.315 75.7234ZM269.303 75.7236C270.937 75.5452 270.937 75.5452 270.937 75.5452C270.937 75.5453 270.937 75.5453 270.937 75.5453C270.937 75.5453 270.937 75.5454 270.937 75.5454C270.937 75.5454 270.937 75.5455 270.937 75.5455C270.937 75.5456 270.937 75.5456 270.937 75.5456C270.937 75.5456 270.937 75.5455 270.937 75.5452C270.937 75.5447 270.937 75.5437 270.937 75.5421C270.936 75.539 270.936 75.5338 270.935 75.5266C270.933 75.5121 270.931 75.4894 270.928 75.4586C270.922 75.3972 270.912 75.3036 270.901 75.1795L267.628 75.4823C267.641 75.6158 267.651 75.7186 267.658 75.789C267.661 75.8243 267.664 75.8514 267.666 75.8703C267.667 75.8797 267.668 75.8871 267.669 75.8924C267.669 75.895 267.669 75.8971 267.669 75.8987C267.669 75.8995 267.669 75.9002 267.669 75.9007C267.669 75.901 267.669 75.9012 267.669 75.9014C267.669 75.9015 267.67 75.9016 267.67 75.9017C267.67 75.9017 267.67 75.9018 267.67 75.9018C267.67 75.9018 267.67 75.9019 267.67 75.9019C267.67 75.9019 267.67 75.9019 269.303 75.7236ZM243.007 74.0802C244.469 74.9727 244.33 76.6976 244.318 76.7143C244.314 76.7196 244.308 76.7279 244.305 76.7306C244.302 76.7351 244.3 76.7382 244.299 76.7387C244.298 76.7406 244.297 76.7409 244.299 76.7392C244.301 76.7362 244.307 76.7292 244.316 76.7183C244.333 76.6966 244.363 76.6609 244.404 76.6126C244.486 76.5161 244.613 76.3702 244.782 76.1864C245.12 75.8183 245.624 75.3015 246.272 74.7253C247.576 73.5649 249.416 72.2053 251.614 71.3092C253.797 70.4192 256.3 69.9982 259.007 70.6439C261.714 71.2896 264.795 73.0428 268.063 76.8017L270.543 74.6454C266.93 70.4895 263.284 68.2852 259.77 67.4469C256.255 66.6086 253.044 67.1769 250.373 68.2656C247.717 69.3483 245.563 70.9567 244.087 72.2697C243.345 72.9302 242.762 73.5264 242.362 73.9621C242.161 74.1803 242.006 74.3591 241.897 74.4867C241.843 74.5505 241.801 74.6017 241.77 74.639C241.755 74.6575 241.743 74.673 241.733 74.6851C241.728 74.691 241.724 74.6969 241.719 74.7026C241.717 74.7051 241.714 74.7096 241.709 74.715C241.707 74.7183 241.7 74.7269 241.696 74.7324C241.683 74.7493 241.545 76.4744 243.007 77.3669V74.0802ZM300.621 10.3854C299.699 10.3372 285.578 9.73239 271.314 17.6293C256.911 25.6033 242.645 42.092 241.365 75.6609L244.649 75.7862C245.889 43.2849 259.579 27.8828 272.906 20.5047C286.372 13.0496 299.755 13.6314 300.449 13.6676L300.621 10.3854ZM300.578 12.0261C300.578 10.3827 300.578 10.3827 300.578 10.3827C300.578 10.3827 300.578 10.3827 300.578 10.3827C300.578 10.3827 300.578 10.3827 300.578 10.3827C300.578 10.3827 300.578 10.3827 300.578 10.3827C300.577 10.3827 300.577 10.3827 300.577 10.3827C300.577 10.3827 300.576 10.3827 300.576 10.3827C300.576 10.3827 300.575 10.3827 300.574 10.3827C300.573 10.3827 300.571 10.3827 300.569 10.3827C300.565 10.3827 300.56 10.3828 300.554 10.3828C300.543 10.3829 300.528 10.3831 300.509 10.3834L300.561 13.6697C300.571 13.6695 300.577 13.6694 300.58 13.6694C300.581 13.6694 300.582 13.6694 300.582 13.6694C300.581 13.6694 300.581 13.6694 300.58 13.6694C300.58 13.6694 300.58 13.6694 300.579 13.6694C300.579 13.6694 300.579 13.6694 300.579 13.6694C300.579 13.6694 300.578 13.6694 300.578 13.6694C300.578 13.6694 300.578 13.6694 300.578 13.6694C300.578 13.6694 300.578 13.6694 300.578 13.6694C300.578 13.6694 300.578 13.6694 300.578 13.6694C300.578 13.6694 300.578 13.6694 300.578 12.0261ZM302.221 12.0421V12.0261H298.935V12.0421H302.221ZM359.77 75.6753C358.483 41.9157 344.062 25.4325 329.579 17.5107C315.239 9.66635 301.117 10.3662 300.486 10.4013L300.669 13.6829C301.074 13.6604 314.46 12.9869 328.002 20.3942C341.403 27.7241 355.24 43.1177 356.486 75.8006L359.77 75.6753ZM333.086 76.8007C336.351 73.0485 339.43 71.2995 342.135 70.6563C344.84 70.0131 347.342 70.435 349.524 71.3254C351.721 72.2219 353.56 73.5811 354.864 74.741C355.511 75.317 356.015 75.8335 356.354 76.2016C356.523 76.3853 356.649 76.5312 356.732 76.6279C356.773 76.6763 356.803 76.7123 356.821 76.7345C356.83 76.7456 356.836 76.7532 356.839 76.7573C356.841 76.7593 356.842 76.7604 356.842 76.7606C356.842 76.7606 356.842 76.7605 356.842 76.7601C356.841 76.7599 356.841 76.7595 356.841 76.7594C356.841 76.7588 356.84 76.7583 358.128 75.738C359.417 74.7177 359.416 74.717 359.415 74.7162C359.415 74.7159 359.414 74.715 359.414 74.7144C359.413 74.713 359.412 74.7114 359.41 74.7096C359.407 74.706 359.404 74.7014 359.399 74.6958C359.39 74.6848 359.378 74.67 359.363 74.6516C359.333 74.615 359.291 74.564 359.237 74.5004C359.129 74.3731 358.973 74.1946 358.773 73.9766C358.372 73.5413 357.79 72.9455 357.048 72.2854C355.573 70.973 353.42 69.3652 350.766 68.2823C348.097 67.1933 344.887 66.6235 341.375 67.4588C337.862 68.294 334.218 70.4937 330.606 74.6429L333.086 76.8007ZM330.211 75.5616C330.21 75.5667 330.21 75.5718 330.209 75.5769L333.48 75.8971C333.481 75.892 333.481 75.887 333.482 75.882L330.211 75.5616ZM331.845 75.737C333.1 74.6772 333.1 74.6771 333.1 74.6771C333.1 74.6771 333.1 74.6771 333.1 74.6771C333.1 74.6771 333.1 74.6771 333.1 74.6771C333.1 74.6771 333.1 74.6771 333.1 74.677C333.1 74.677 333.1 74.677 333.1 74.6769C333.1 74.6768 333.1 74.6768 333.1 74.6767C333.1 74.6765 333.1 74.6763 333.1 74.6761C333.099 74.6758 333.099 74.6753 333.099 74.6749C333.098 74.674 333.097 74.6729 333.096 74.6718C333.094 74.6694 333.091 74.6664 333.088 74.6629L330.589 76.7974C330.59 76.7984 330.59 76.7989 330.59 76.7988C330.59 76.7987 330.59 76.7985 330.59 76.7982C330.59 76.7981 330.589 76.7979 330.589 76.7976C330.589 76.7975 330.589 76.7974 330.589 76.7972C330.589 76.7972 330.589 76.7971 330.589 76.797C330.589 76.797 330.589 76.797 330.589 76.7969C330.589 76.7969 330.589 76.7969 330.589 76.7969C330.589 76.7969 330.589 76.7969 330.589 76.7968C330.589 76.7968 330.589 76.7968 330.589 76.7968C330.589 76.7968 330.589 76.7968 331.845 75.737ZM333.072 76.8161C333.075 76.8134 333.076 76.8113 333.078 76.8092L330.599 74.6511C330.597 74.6542 330.594 74.6573 330.592 74.6598L333.072 76.8161ZM329.182 75.3473C329.65 75.8413 330.017 76.2248 330.268 76.4855C330.394 76.6158 330.49 76.7155 330.556 76.7829C330.588 76.8166 330.613 76.8422 330.63 76.8596C330.639 76.8683 330.645 76.8749 330.65 76.8795C330.652 76.8818 330.654 76.8835 330.655 76.8847C330.655 76.8853 330.656 76.8858 330.656 76.8862C330.656 76.8864 330.657 76.8865 330.657 76.8866C330.657 76.8867 330.657 76.8867 330.657 76.8867C330.657 76.8868 330.657 76.8868 330.657 76.8868C330.657 76.8868 330.657 76.8868 331.832 75.738C333.007 74.5891 333.007 74.5891 333.007 74.5891C333.007 74.5891 333.007 74.5891 333.007 74.5891C333.007 74.5891 333.007 74.5891 333.007 74.5891C333.007 74.5891 333.007 74.589 333.007 74.5889C333.007 74.5888 333.006 74.5885 333.006 74.588C333.005 74.5872 333.004 74.5858 333.002 74.5838C332.998 74.58 332.992 74.5741 332.985 74.5661C332.969 74.5501 332.946 74.526 332.914 74.4937C332.852 74.4293 332.758 74.3327 332.636 74.2055C332.391 73.9511 332.03 73.5743 331.569 73.0874L329.182 75.3473ZM331.508 73.027C329.292 70.9175 324.699 67.1714 318.889 66.0381C315.948 65.4646 312.697 65.5611 309.325 66.8727C305.96 68.1815 302.574 70.6612 299.293 74.701L301.844 76.773C304.841 73.0831 307.784 70.9984 310.516 69.9359C313.241 68.8762 315.853 68.7946 318.259 69.264C323.143 70.2164 327.175 73.4401 329.242 75.4077L331.508 73.027ZM302.212 75.737V75.7131H298.925V75.737H302.212ZM269.315 75.7234C270.645 76.6885 270.645 76.6891 270.645 76.6896C270.645 76.6897 270.644 76.6902 270.644 76.6904C270.644 76.6907 270.644 76.6908 270.644 76.6905C270.644 76.6901 270.645 76.6885 270.647 76.6858C270.651 76.6805 270.659 76.6707 270.669 76.6567C270.69 76.6287 270.724 76.584 270.771 76.5242C270.864 76.4046 271.008 76.2251 271.2 75.9996C271.584 75.548 272.157 74.9153 272.898 74.2102C274.389 72.7916 276.511 71.1254 279.096 70.0253C281.662 68.9333 284.666 68.4049 288 69.2068C291.344 70.0108 295.186 72.192 299.348 76.8129L301.79 74.6133C297.299 69.6275 292.908 67.0065 288.769 66.0112C284.621 65.0138 280.893 65.6888 277.809 67.001C274.744 68.3052 272.298 70.2441 270.632 71.8295C269.795 72.6265 269.143 73.3455 268.697 73.8701C268.473 74.1328 268.301 74.3476 268.181 74.5002C268.122 74.5765 268.075 74.6374 268.043 74.681C268.026 74.7028 268.013 74.7202 268.004 74.7332C267.999 74.7397 267.995 74.745 267.992 74.7492C267.99 74.7513 267.989 74.7531 267.988 74.7546C267.987 74.7554 267.987 74.7563 267.986 74.7567C267.986 74.7575 267.985 74.7583 269.315 75.7234ZM267.635 75.5395C267.651 75.6714 267.669 75.8036 267.686 75.9361L270.945 75.5107C270.928 75.381 270.911 75.2515 270.895 75.1223L267.635 75.5395Z" fill="#A880FF"/>
<path fill-rule="evenodd" clip-rule="evenodd" d="M430 96.9226C430 97.9229 430.811 98.7338 431.811 98.7338H460.79C461.791 98.7338 462.602 97.9229 462.602 96.9226V96.9226C462.602 95.9223 461.791 95.1114 460.79 95.1114H431.811C430.811 95.1114 430 95.9223 430 96.9226V96.9226ZM430 87.8657C430 88.866 430.811 89.6769 431.811 89.6769H460.79C461.791 89.6769 462.602 88.866 462.602 87.8657V87.8657C462.602 86.8654 461.791 86.0545 460.79 86.0545H431.811C430.811 86.0545 430 86.8654 430 87.8657V87.8657ZM431.813 77C430.812 77 430.002 77.8109 430.002 78.8112V78.8112C430.002 79.8115 430.812 80.6224 431.813 80.6224H460.792C461.792 80.6224 462.603 79.8115 462.603 78.8112V78.8112C462.603 77.8109 461.792 77 460.792 77H431.813Z" fill="white"/>
<path d="M279.799 660.426H278.243C277.922 652.759 275.613 646.159 271.514 641.249C269.307 638.606 266.65 636.552 263.618 635.144C262.113 634.446 260.531 633.916 258.885 633.554C259.452 632.607 259.779 631.501 259.779 630.32C259.779 626.835 256.944 624 253.459 624C249.974 624 247.139 626.835 247.139 630.32C247.139 631.501 247.466 632.608 248.033 633.555C236.893 636.01 229.562 646.136 228.975 660.426H226.87C225.837 660.426 225 661.263 225 662.295C225 663.328 225.837 664.165 226.87 664.165H228.936H278.284H279.799C280.832 664.165 281.669 663.328 281.669 662.295C281.669 661.263 280.832 660.426 279.799 660.426ZM253.459 627.739C254.882 627.739 256.04 628.897 256.04 630.32C256.04 631.743 254.882 632.9 253.459 632.9C252.036 632.9 250.878 631.743 250.878 630.32C250.878 628.897 252.036 627.739 253.459 627.739ZM232.716 660.425C233.018 653.628 234.98 647.851 238.436 643.632C242.142 639.108 247.337 636.717 253.459 636.717C259.609 636.717 264.86 639.113 268.644 643.646C272.183 647.884 274.192 653.657 274.502 660.425H232.716Z" fill="white" stroke="white" stroke-width="0.130436"/>
<rect x="42.4688" y="159.833" width="510.886" height="360.154" rx="18.7248" fill="#2C3040"/>
<rect x="63.8154" y="191.846" width="469.535" height="294.793" fill="#DFE8FF"/>
<circle cx="299.246" cy="177.84" r="6.00257" fill="#7E89B7"/>
<path d="M552.029 201.184V201.184C554.976 201.184 557.365 203.573 557.365 206.519V225.194C557.365 228.141 554.976 230.53 552.029 230.53V230.53V201.184Z" fill="#2F3960"/>
<path d="M552.029 250.539V250.539C554.976 250.539 557.365 252.927 557.365 255.874V301.227C557.365 304.174 554.976 306.563 552.029 306.563V306.563V250.539Z" fill="#2F3960"/>
<rect x="192.665" y="239.124" width="98.9144" height="105.568" rx="7.56246" fill="#EDFFE4"/>
<path d="M203.605 311.771C208.619 306.885 221.577 300.046 233.303 311.771C228.64 316.944 216.173 324.186 203.605 311.771Z" fill="#AAE390" fill-opacity="0.46"/>
<path d="M210.926 272.126C215.939 267.241 228.898 260.401 240.623 272.126C235.96 277.299 223.494 284.541 210.926 272.126Z" fill="#AAE390" fill-opacity="0.46"/>
<path d="M268.602 301.468C266.703 308.206 258.9 320.609 242.883 316.317C244.335 309.506 251.51 297.001 268.602 301.468Z" fill="#AAE390" fill-opacity="0.46"/>
<path d="M275.928 261.823C274.029 268.561 266.226 280.963 250.21 276.672C251.661 269.861 258.836 257.356 275.928 261.823Z" fill="#AAE390" fill-opacity="0.46"/>
<path d="M230.415 263.442C223.63 265.166 208.988 264.61 204.696 248.593C211.321 246.444 225.738 246.406 230.415 263.442Z" fill="#AAE390" fill-opacity="0.46"/>
<path d="M217.009 316.681C223.794 314.957 238.436 315.512 242.727 331.529C236.103 333.678 221.686 333.716 217.009 316.681Z" fill="#AAE390" fill-opacity="0.46"/>
<path d="M224.334 277.033C231.119 275.309 245.761 275.865 250.053 291.882C243.429 294.03 229.011 294.069 224.334 277.033Z" fill="#AAE390" fill-opacity="0.46"/>
<circle cx="255.939" cy="324.278" r="5.65152" fill="#F98C8C"/>
<circle cx="263.264" cy="284.632" r="5.65152" fill="#F98C8C"/>
<circle cx="209.257" cy="325.871" r="5.65152" fill="#F98C8C"/>
<circle cx="216.577" cy="286.224" r="5.65152" fill="#F98C8C"/>
<circle cx="233.814" cy="306.312" r="5.65152" fill="#F98C8C"/>
<circle cx="241.142" cy="266.665" r="5.65152" fill="#F98C8C"/>
<circle cx="265.403" cy="251.895" r="5.65152" fill="#F98C8C"/>
<rect x="304.501" y="297.684" width="98.9144" height="47.0054" rx="7.56246" fill="#FFECBB"/>
<path d="M349.031 339.873L324.122 319.478L349.035 307.495L349.031 339.873Z" fill="#FFCEA0"/>
<rect x="317.029" y="314.037" width="34.4291" height="8.32646" rx="4.16323" transform="rotate(-25.2539 317.029 314.037)" fill="#FFCEA0"/>
<path d="M352.907 339.418L362.329 310.043L384.749 326.215L352.907 339.418Z" fill="#FFCEA0"/>
<rect x="363.721" y="301.219" width="34.4291" height="8.32646" rx="4.16323" transform="rotate(36.2379 363.721 301.219)" fill="#FFCEA0"/>
<circle cx="336.792" cy="321.195" r="5.65152" fill="#F98C8C"/>
<circle cx="362.095" cy="323.785" r="5.65152" fill="#F98C8C"/>
<circle cx="375.962" cy="310.043" r="5.65152" fill="#F98C8C"/>
<rect x="304.501" y="239.123" width="98.9144" height="47.0054" rx="7.56246" fill="white"/>
<rect x="415.981" y="297.684" width="98.9144" height="47.0054" rx="7.56246" fill="white"/>
<rect x="425.882" y="308.284" width="23.5367" height="22.6458" rx="3.51091" fill="#FFEAEA"/>
<rect x="428.823" y="311.12" width="17.642" height="16.9742" rx="3.51091" fill="#FFEAEA"/>
<rect x="432.421" y="314.579" width="10.4529" height="10.0572" rx="3.51091" fill="#FFC29F"/>
<rect x="453.741" y="316.772" width="23.5367" height="22.6458" rx="3.51091" fill="#FFEAEA"/>
<rect x="456.682" y="319.608" width="17.642" height="16.9742" rx="3.51091" fill="#FFEAEA"/>
<rect x="460.28" y="323.067" width="10.4529" height="10.0572" rx="3.51091" fill="#FFC29F"/>
<rect x="481.452" y="306.701" width="23.5367" height="22.6458" rx="3.51091" fill="#FFEAEA"/>
<rect x="484.394" y="309.536" width="17.642" height="16.9742" rx="3.51091" fill="#FFEAEA"/>
<rect x="488.005" y="312.995" width="10.4529" height="10.0572" rx="3.51091" fill="#FFC29F"/>
<rect x="415.981" y="239.123" width="98.9144" height="47.0054" rx="7.56246" fill="#E4FFF2"/>
<path d="M489.679 262.922C484.093 267.65 471.707 272.317 456.051 272.317C440.395 272.317 427.991 267.097 423.215 262.922C430.011 258.651 440.395 253.526 456.051 253.526C471.707 253.526 485.84 259.501 489.679 262.922Z" fill="#BDF2D5"/>
<path d="M482.898 263.328L501.364 254.697V270.554L482.898 263.328Z" fill="#BDF2D5"/>
<path d="M353.555 260.31C356.646 261.994 356.715 265.938 353.664 267.695C349.428 270.135 343.5 271.968 336.596 271.968C330.383 271.968 324.957 270.309 320.962 268.203C317.469 266.362 317.679 261.75 321.131 259.834C325.104 257.628 330.167 255.884 336.596 255.884C343.173 255.884 349.337 258.013 353.555 260.31Z" fill="#FFD1CB"/>
<rect x="319.637" y="255.935" width="35.1478" height="7.99212" fill="#FFD1CB"/>
<path d="M353.555 252.269C356.647 253.953 356.716 257.897 353.665 259.654C349.429 262.094 343.501 263.927 336.597 263.927C330.384 263.927 324.958 262.268 320.963 260.162C317.47 258.321 317.68 253.709 321.132 251.793C325.105 249.587 330.168 247.843 336.597 247.843C343.174 247.843 349.338 249.972 353.555 252.269Z" fill="#FFDCDC"/>
<path d="M387.009 267.453C390.1 269.137 390.169 273.081 387.118 274.838C382.882 277.278 376.954 279.111 370.05 279.111C363.837 279.111 358.411 277.451 354.416 275.346C350.924 273.505 351.133 268.893 354.585 266.977C358.558 264.771 363.621 263.026 370.05 263.026C376.627 263.026 382.791 265.155 387.009 267.453Z" fill="#FFD1CB"/>
<rect x="353.091" y="263.075" width="35.1478" height="7.99212" fill="#FFD1CB"/>
<path d="M387.009 259.41C390.1 261.094 390.169 265.039 387.118 266.796C382.882 269.236 376.954 271.069 370.05 271.069C363.837 271.069 358.411 269.409 354.416 267.304C350.924 265.463 351.133 260.851 354.585 258.934C358.558 256.729 363.621 254.984 370.05 254.984C376.627 254.984 382.791 257.113 387.009 259.41Z" fill="#FFDCDC"/>
<g opacity="0.5" filter="url(#filter0_d_707_330)">
<rect x="98.6455" y="323.115" width="147.368" height="181.41" rx="8.0485" fill="white"/>
<path d="M98.6455 331.164C98.6455 326.719 102.249 323.115 106.694 323.115H237.965C242.41 323.115 246.014 326.719 246.014 331.164V429.548H98.6455V331.164Z" fill="#A58EFF"/>
</g>
<g filter="url(#filter1_d_707_330)">
<rect x="105.827" y="316.343" width="147.368" height="181.41" rx="8.0485" fill="white"/>
<path d="M114.53 479.517V478.206L117.817 473.027H118.948V474.841H118.279L116.206 478.121V478.183H120.878V479.517H114.53ZM118.309 480.901V479.117L118.34 478.536V473.027H119.901V480.901H118.309ZM124.863 481.009C124.32 481.009 123.835 480.909 123.41 480.709C122.987 480.509 122.651 480.233 122.403 479.882C122.154 479.531 122.024 479.129 122.014 478.675H123.629C123.647 478.98 123.775 479.227 124.014 479.417C124.252 479.607 124.535 479.701 124.863 479.701C125.125 479.701 125.355 479.644 125.555 479.528C125.758 479.411 125.916 479.248 126.028 479.04C126.144 478.83 126.201 478.589 126.201 478.317C126.201 478.04 126.142 477.797 126.025 477.587C125.909 477.377 125.749 477.212 125.544 477.095C125.339 476.977 125.104 476.916 124.84 476.914C124.61 476.914 124.385 476.961 124.167 477.056C123.952 477.151 123.784 477.28 123.664 477.444L122.183 477.179L122.556 473.027H127.37V474.388H123.929L123.725 476.36H123.771C123.91 476.165 124.119 476.004 124.398 475.876C124.677 475.748 124.99 475.683 125.336 475.683C125.81 475.683 126.233 475.795 126.605 476.018C126.977 476.241 127.27 476.547 127.486 476.937C127.701 477.324 127.807 477.77 127.805 478.275C127.807 478.806 127.684 479.277 127.436 479.69C127.19 480.1 126.845 480.423 126.401 480.659C125.96 480.892 125.448 481.009 124.863 481.009ZM132.054 481.074C131.392 481.072 130.823 480.909 130.346 480.586C129.872 480.263 129.507 479.795 129.25 479.182C128.997 478.57 128.871 477.833 128.874 476.972C128.874 476.113 129.001 475.381 129.254 474.776C129.511 474.171 129.876 473.711 130.35 473.396C130.827 473.078 131.395 472.919 132.054 472.919C132.712 472.919 133.279 473.078 133.753 473.396C134.23 473.713 134.596 474.175 134.853 474.78C135.109 475.382 135.236 476.113 135.233 476.972C135.233 477.835 135.105 478.574 134.849 479.186C134.595 479.799 134.231 480.267 133.757 480.59C133.283 480.913 132.715 481.074 132.054 481.074ZM132.054 479.694C132.505 479.694 132.865 479.467 133.134 479.013C133.403 478.56 133.536 477.879 133.534 476.972C133.534 476.374 133.472 475.877 133.349 475.48C133.229 475.082 133.057 474.784 132.834 474.584C132.614 474.384 132.353 474.284 132.054 474.284C131.605 474.284 131.246 474.508 130.977 474.957C130.708 475.405 130.572 476.077 130.569 476.972C130.569 477.576 130.63 478.081 130.75 478.486C130.873 478.889 131.046 479.191 131.269 479.394C131.492 479.594 131.754 479.694 132.054 479.694ZM137.899 479.825L137.857 480.247C137.823 480.586 137.759 480.923 137.664 481.259C137.572 481.597 137.475 481.903 137.372 482.178C137.272 482.452 137.191 482.667 137.13 482.824H136.069C136.107 482.672 136.16 482.461 136.226 482.189C136.293 481.92 136.356 481.618 136.415 481.282C136.474 480.946 136.511 480.604 136.526 480.255L136.545 479.825H137.899ZM142.151 481.074C141.49 481.072 140.921 480.909 140.444 480.586C139.97 480.263 139.605 479.795 139.348 479.182C139.095 478.57 138.969 477.833 138.972 476.972C138.972 476.113 139.099 475.381 139.352 474.776C139.609 474.171 139.974 473.711 140.448 473.396C140.925 473.078 141.493 472.919 142.151 472.919C142.81 472.919 143.377 473.078 143.851 473.396C144.328 473.713 144.694 474.175 144.951 474.78C145.207 475.382 145.334 476.113 145.331 476.972C145.331 477.835 145.203 478.574 144.947 479.186C144.693 479.799 144.329 480.267 143.855 480.59C143.381 480.913 142.813 481.074 142.151 481.074ZM142.151 479.694C142.603 479.694 142.963 479.467 143.232 479.013C143.501 478.56 143.634 477.879 143.632 476.972C143.632 476.374 143.57 475.877 143.447 475.48C143.327 475.082 143.155 474.784 142.932 474.584C142.712 474.384 142.451 474.284 142.151 474.284C141.703 474.284 141.344 474.508 141.075 474.957C140.806 475.405 140.67 476.077 140.667 476.972C140.667 477.576 140.728 478.081 140.848 478.486C140.971 478.889 141.144 479.191 141.367 479.394C141.59 479.594 141.852 479.694 142.151 479.694ZM149.606 481.074C148.945 481.072 148.376 480.909 147.899 480.586C147.425 480.263 147.059 479.795 146.803 479.182C146.549 478.57 146.424 477.833 146.426 476.972C146.426 476.113 146.553 475.381 146.807 474.776C147.063 474.171 147.428 473.711 147.903 473.396C148.379 473.078 148.947 472.919 149.606 472.919C150.265 472.919 150.831 473.078 151.306 473.396C151.782 473.713 152.149 474.175 152.405 474.78C152.662 475.382 152.788 476.113 152.786 476.972C152.786 477.835 152.658 478.574 152.401 479.186C152.148 479.799 151.784 480.267 151.309 480.59C150.835 480.913 150.267 481.074 149.606 481.074ZM149.606 479.694C150.057 479.694 150.417 479.467 150.686 479.013C150.956 478.56 151.089 477.879 151.086 476.972C151.086 476.374 151.025 475.877 150.902 475.48C150.781 475.082 150.61 474.784 150.387 474.584C150.166 474.384 149.906 474.284 149.606 474.284C149.157 474.284 148.799 474.508 148.529 474.957C148.26 475.405 148.124 476.077 148.122 476.972C148.122 477.576 148.182 478.081 148.303 478.486C148.426 478.889 148.599 479.191 148.822 479.394C149.045 479.594 149.306 479.694 149.606 479.694ZM160.536 478.052H156.341V476.718H160.489C160.802 476.718 161.058 476.672 161.258 476.579C161.458 476.487 161.606 476.356 161.701 476.187C161.795 476.018 161.843 475.818 161.843 475.587C161.843 475.362 161.795 475.158 161.701 474.976C161.606 474.794 161.461 474.649 161.266 474.541C161.071 474.434 160.828 474.38 160.536 474.38H159.113V480.901H157.459V473.027H160.536C161.158 473.027 161.692 473.138 162.135 473.361C162.581 473.581 162.922 473.884 163.158 474.268C163.394 474.65 163.51 475.084 163.508 475.568C163.51 476.076 163.391 476.515 163.15 476.887C162.909 477.259 162.566 477.546 162.12 477.748C161.674 477.951 161.146 478.052 160.536 478.052ZM160.832 478.56V479.894H156.341V478.56H160.832Z" fill="#7681AB"/>
<path d="M125.389 446.843V459.934H123.803V448.25H117.207V459.934H115.622V446.843H125.389ZM128.382 463.616V450.116H129.839V451.676H130.018C130.129 451.505 130.282 451.288 130.478 451.024C130.679 450.755 130.964 450.517 131.335 450.308C131.71 450.095 132.217 449.988 132.856 449.988C133.683 449.988 134.411 450.195 135.042 450.608C135.673 451.022 136.165 451.608 136.519 452.366C136.872 453.125 137.049 454.02 137.049 455.051C137.049 456.091 136.872 456.992 136.519 457.755C136.165 458.513 135.675 459.101 135.049 459.519C134.422 459.932 133.7 460.139 132.882 460.139C132.251 460.139 131.746 460.034 131.367 459.826C130.987 459.613 130.696 459.372 130.491 459.103C130.286 458.831 130.129 458.605 130.018 458.426H129.89V463.616H128.382ZM129.865 455.025C129.865 455.767 129.973 456.421 130.191 456.988C130.408 457.55 130.725 457.991 131.143 458.311C131.561 458.626 132.072 458.784 132.677 458.784C133.308 458.784 133.834 458.618 134.256 458.285C134.682 457.949 135.002 457.497 135.215 456.93C135.432 456.359 135.541 455.724 135.541 455.025C135.541 454.335 135.434 453.713 135.221 453.159C135.012 452.601 134.695 452.159 134.269 451.836C133.847 451.507 133.316 451.343 132.677 451.343C132.063 451.343 131.548 451.499 131.13 451.81C130.713 452.117 130.397 452.547 130.184 453.101C129.971 453.651 129.865 454.292 129.865 455.025ZM143.339 460.139C142.453 460.139 141.675 459.928 141.006 459.506C140.341 459.084 139.821 458.494 139.446 457.735C139.076 456.977 138.89 456.091 138.89 455.076C138.89 454.054 139.076 453.161 139.446 452.398C139.821 451.635 140.341 451.043 141.006 450.621C141.675 450.199 142.453 449.988 143.339 449.988C144.225 449.988 145.001 450.199 145.666 450.621C146.335 451.043 146.855 451.635 147.225 452.398C147.6 453.161 147.788 454.054 147.788 455.076C147.788 456.091 147.6 456.977 147.225 457.735C146.855 458.494 146.335 459.084 145.666 459.506C145.001 459.928 144.225 460.139 143.339 460.139ZM143.339 458.784C144.012 458.784 144.566 458.611 145.001 458.266C145.436 457.921 145.757 457.467 145.966 456.904C146.175 456.342 146.279 455.733 146.279 455.076C146.279 454.42 146.175 453.809 145.966 453.242C145.757 452.675 145.436 452.217 145.001 451.868C144.566 451.518 144.012 451.343 143.339 451.343C142.666 451.343 142.112 451.518 141.677 451.868C141.242 452.217 140.921 452.675 140.712 453.242C140.503 453.809 140.399 454.42 140.399 455.076C140.399 455.733 140.503 456.342 140.712 456.904C140.921 457.467 141.242 457.921 141.677 458.266C142.112 458.611 142.666 458.784 143.339 458.784ZM149.042 462.747V458.528H149.861C150.061 458.319 150.233 458.093 150.378 457.851C150.523 457.608 150.649 457.32 150.755 456.988C150.866 456.651 150.96 456.242 151.037 455.76C151.113 455.275 151.182 454.689 151.241 454.003L151.574 450.116H157.812V458.528H159.321V462.747H157.812V459.934H150.551V462.747H149.042ZM151.574 458.528H156.304V451.522H152.98L152.724 454.003C152.618 455.029 152.486 455.927 152.328 456.694C152.17 457.461 151.919 458.072 151.574 458.528ZM164.212 460.164C163.59 460.164 163.025 460.047 162.518 459.813C162.011 459.574 161.609 459.231 161.31 458.784C161.012 458.332 160.863 457.787 160.863 457.147C160.863 456.585 160.974 456.129 161.195 455.779C161.417 455.426 161.713 455.149 162.084 454.949C162.454 454.748 162.864 454.599 163.311 454.501C163.763 454.399 164.217 454.318 164.672 454.258C165.269 454.181 165.753 454.124 166.123 454.086C166.498 454.043 166.771 453.973 166.942 453.875C167.116 453.777 167.204 453.606 167.204 453.363V453.312C167.204 452.681 167.031 452.191 166.686 451.842C166.345 451.493 165.827 451.318 165.133 451.318C164.413 451.318 163.848 451.476 163.439 451.791C163.03 452.106 162.742 452.443 162.576 452.801L161.144 452.289C161.4 451.693 161.741 451.228 162.167 450.896C162.597 450.559 163.066 450.325 163.573 450.193C164.084 450.056 164.587 449.988 165.082 449.988C165.397 449.988 165.759 450.027 166.168 450.103C166.582 450.176 166.98 450.327 167.364 450.557C167.751 450.787 168.073 451.135 168.329 451.599C168.584 452.064 168.712 452.686 168.712 453.466V459.934H167.204V458.605H167.127C167.025 458.818 166.854 459.046 166.616 459.289C166.377 459.532 166.06 459.738 165.663 459.909C165.267 460.079 164.783 460.164 164.212 460.164ZM164.442 458.809C165.039 458.809 165.542 458.692 165.951 458.458C166.364 458.223 166.675 457.921 166.884 457.55C167.097 457.179 167.204 456.789 167.204 456.38V455C167.14 455.076 166.999 455.147 166.782 455.211C166.569 455.27 166.322 455.324 166.04 455.37C165.763 455.413 165.493 455.451 165.229 455.485C164.969 455.515 164.758 455.541 164.596 455.562C164.204 455.613 163.837 455.696 163.496 455.811C163.16 455.922 162.887 456.091 162.678 456.316C162.474 456.538 162.371 456.841 162.371 457.224C162.371 457.748 162.565 458.145 162.953 458.413C163.345 458.677 163.842 458.809 164.442 458.809ZM170.852 459.934L174.841 454.949L170.903 450.116H172.693L175.966 454.309H176.784V450.116H178.292V454.309H179.085L182.358 450.116H184.147L180.236 454.949L184.199 459.934H182.383L179.059 455.716H178.292V459.934H176.784V455.716H176.017L172.667 459.934H170.852ZM187.863 457.71L192.593 450.116H194.332V459.934H192.823V452.341L188.119 459.934H186.354V450.116H187.863V457.71Z" fill="#7681AB"/>
<path d="M105.827 324.392C105.827 319.947 109.431 316.343 113.876 316.343H245.147C249.592 316.343 253.195 319.947 253.195 324.392V422.776H105.827V324.392Z" fill="#A880FF"/>
<path d="M182.922 362.216L184.652 384.411C194.612 387.376 204.303 385.646 207.903 384.411L210.577 349.645C197.313 346.462 186.017 348.319 182.027 349.645L182.922 362.216Z" fill="#FFF1A5"/>
<path d="M208.302 383.909C208.302 383.909 208.302 383.909 208.301 383.91L208.302 383.909ZM207.775 383.819C207.946 383.903 208.069 383.979 208.155 384.041C208.069 384.104 207.946 384.18 207.775 384.264C207.231 384.532 206.384 384.799 205.264 385.032C203.038 385.496 199.923 385.789 196.452 385.789C192.982 385.789 189.866 385.496 187.641 385.032C186.521 384.799 185.674 384.532 185.129 384.264C184.958 384.18 184.835 384.104 184.75 384.041C184.835 383.979 184.958 383.903 185.129 383.819C185.674 383.551 186.521 383.284 187.641 383.051C189.866 382.587 192.982 382.293 196.452 382.293C199.923 382.293 203.038 382.587 205.264 383.051C206.384 383.284 207.231 383.551 207.775 383.819ZM184.603 384.174C184.602 384.174 184.603 384.174 184.603 384.173L184.603 384.174ZM208.301 384.173C208.302 384.174 208.302 384.174 208.302 384.174L208.301 384.173Z" fill="white" stroke="white" stroke-width="1.80468"/>
<mask id="path-65-inside-1_707_330" fill="white">
<path fill-rule="evenodd" clip-rule="evenodd" d="M212.338 336.866H180.534L183.715 384.043H183.72C183.722 385.506 189.417 386.693 196.442 386.693C203.468 386.693 209.164 385.506 209.164 384.042C209.164 384.026 209.163 384.009 209.161 383.993L212.338 336.866Z"/>
</mask>
<path d="M180.534 336.866V335.062H178.604L178.734 336.988L180.534 336.866ZM212.338 336.866L214.139 336.988L214.269 335.062H212.338V336.866ZM183.715 384.043L181.914 384.164L182.027 385.847H183.715V384.043ZM183.72 384.043L185.525 384.041L185.523 382.238H183.72V384.043ZM209.161 383.993L207.361 383.872L207.351 384.011L207.364 384.15L209.161 383.993ZM180.534 338.671H212.338V335.062H180.534V338.671ZM185.515 383.921L182.335 336.745L178.734 336.988L181.914 384.164L185.515 383.921ZM183.72 382.238H183.715V385.847H183.72V382.238ZM196.442 384.888C193.015 384.888 189.964 384.597 187.815 384.15C186.726 383.923 185.964 383.675 185.518 383.455C185.291 383.344 185.239 383.284 185.266 383.312C185.299 383.345 185.524 383.595 185.525 384.041L181.915 384.045C181.916 384.857 182.32 385.463 182.692 385.842C183.059 386.215 183.506 386.488 183.924 386.693C184.765 387.108 185.866 387.431 187.079 387.683C189.535 388.195 192.844 388.497 196.442 388.497V384.888ZM207.359 384.042C207.359 383.596 207.584 383.346 207.618 383.312C207.645 383.284 207.593 383.343 207.366 383.455C206.92 383.675 206.158 383.923 205.069 384.15C202.921 384.597 199.87 384.888 196.442 384.888V388.497C200.04 388.497 203.35 388.195 205.806 387.683C207.019 387.43 208.12 387.107 208.961 386.693C209.378 386.487 209.826 386.214 210.193 385.841C210.565 385.462 210.968 384.854 210.968 384.042H207.359ZM207.364 384.15C207.36 384.115 207.359 384.078 207.359 384.042H210.968C210.968 383.973 210.965 383.904 210.959 383.835L207.364 384.15ZM210.538 336.745L207.361 383.872L210.962 384.114L214.139 336.988L210.538 336.745Z" fill="white" mask="url(#path-65-inside-1_707_330)"/>
<path d="M211.469 336.753C211.469 336.753 211.468 336.755 211.466 336.757C211.468 336.755 211.469 336.753 211.469 336.753ZM210.728 336.581C210.999 336.699 211.187 336.806 211.31 336.894C211.187 336.982 210.999 337.089 210.728 337.207C210.016 337.517 208.929 337.818 207.517 338.078C204.708 338.595 200.79 338.921 196.436 338.921C192.083 338.921 188.164 338.595 185.355 338.078C183.943 337.818 182.857 337.517 182.144 337.207C181.874 337.089 181.686 336.982 181.562 336.894C181.686 336.806 181.874 336.699 182.144 336.581C182.857 336.27 183.943 335.97 185.355 335.71C188.164 335.192 192.083 334.867 196.436 334.867C200.79 334.867 204.708 335.192 207.517 335.71C208.929 335.97 210.016 336.27 210.728 336.581ZM181.404 336.753C181.404 336.753 181.405 336.755 181.406 336.757C181.404 336.755 181.404 336.753 181.404 336.753ZM181.404 337.034C181.404 337.034 181.404 337.033 181.406 337.03C181.405 337.033 181.404 337.034 181.404 337.034ZM211.466 337.03C211.468 337.033 211.469 337.034 211.469 337.034C211.469 337.034 211.468 337.033 211.466 337.03Z" fill="#B7C6FF" stroke="white" stroke-width="1.80468"/>
<circle cx="194.911" cy="371.575" r="9.36269" fill="white" stroke="#FFCC80" stroke-width="1.80468"/>
<circle cx="194.918" cy="371.5" r="0.902339" fill="#FFFB9B" stroke="#FFCC80" stroke-width="1.2209"/>
<path d="M195.744 365.787C195.744 366.093 195.6 366.718 195.327 367.275C195.195 367.546 195.058 367.744 194.943 367.861C194.93 367.874 194.919 367.885 194.908 367.894C194.898 367.885 194.887 367.874 194.874 367.861C194.758 367.744 194.622 367.546 194.489 367.275C194.217 366.718 194.072 366.093 194.072 365.787C194.072 365.325 194.447 364.951 194.908 364.951C195.37 364.951 195.744 365.325 195.744 365.787ZM194.841 367.945C194.841 367.945 194.842 367.944 194.844 367.944C194.842 367.945 194.841 367.945 194.841 367.945ZM194.973 367.944C194.975 367.944 194.976 367.945 194.976 367.945C194.976 367.945 194.975 367.945 194.973 367.944Z" fill="#FFFB9B" stroke="#FFCC80" stroke-width="1.80468"/>
<path d="M200.614 372.335C200.309 372.335 199.683 372.191 199.126 371.918C198.856 371.785 198.657 371.649 198.54 371.533C198.527 371.521 198.516 371.509 198.507 371.499C198.516 371.489 198.527 371.477 198.54 371.465C198.657 371.349 198.856 371.213 199.126 371.08C199.683 370.808 200.309 370.663 200.614 370.663C201.076 370.663 201.45 371.037 201.45 371.499C201.45 371.961 201.076 372.335 200.614 372.335ZM198.456 371.431C198.457 371.431 198.457 371.432 198.458 371.434C198.457 371.432 198.456 371.431 198.456 371.431ZM198.458 371.564C198.457 371.566 198.457 371.567 198.456 371.567C198.456 371.567 198.457 371.566 198.458 371.564Z" fill="#FFFB9B" stroke="#FFCC80" stroke-width="1.80468"/>
<path d="M198.354 376.206C198.138 375.99 197.798 375.446 197.597 374.859C197.499 374.574 197.455 374.337 197.454 374.172C197.454 374.154 197.454 374.139 197.455 374.125C197.469 374.124 197.485 374.124 197.502 374.124C197.667 374.125 197.904 374.169 198.189 374.267C198.776 374.467 199.32 374.808 199.536 375.024C199.863 375.35 199.863 375.879 199.536 376.206C199.21 376.532 198.68 376.532 198.354 376.206ZM197.467 374.041C197.467 374.041 197.467 374.042 197.466 374.044C197.466 374.042 197.467 374.041 197.467 374.041ZM197.374 374.136C197.372 374.137 197.371 374.137 197.371 374.137C197.371 374.137 197.372 374.136 197.374 374.136Z" fill="#FFFB9B" stroke="#FFCC80" stroke-width="1.80468"/>
<path d="M190.27 375.024C190.486 374.808 191.031 374.468 191.617 374.267C191.902 374.169 192.139 374.125 192.304 374.124C192.322 374.124 192.337 374.124 192.351 374.125C192.352 374.139 192.352 374.155 192.352 374.173C192.351 374.337 192.307 374.574 192.209 374.859C192.009 375.446 191.669 375.99 191.453 376.206C191.126 376.533 190.597 376.533 190.27 376.206C189.944 375.88 189.944 375.35 190.27 375.024ZM192.435 374.137C192.435 374.137 192.434 374.137 192.432 374.136C192.434 374.137 192.435 374.137 192.435 374.137ZM192.34 374.045C192.339 374.043 192.339 374.042 192.339 374.041C192.339 374.041 192.34 374.042 192.34 374.045Z" fill="#FFFB9B" stroke="#FFCC80" stroke-width="1.80468"/>
<path d="M194.082 377.212C194.082 376.907 194.226 376.281 194.499 375.725C194.632 375.454 194.768 375.256 194.884 375.138C194.896 375.125 194.908 375.115 194.918 375.105C194.928 375.115 194.94 375.125 194.952 375.138C195.068 375.256 195.204 375.454 195.337 375.725C195.609 376.281 195.754 376.907 195.754 377.212C195.754 377.674 195.38 378.048 194.918 378.048C194.456 378.048 194.082 377.674 194.082 377.212ZM194.985 375.055C194.985 375.055 194.985 375.055 194.983 375.056C194.985 375.055 194.985 375.055 194.985 375.055ZM194.853 375.056C194.851 375.055 194.85 375.055 194.85 375.055C194.85 375.055 194.851 375.055 194.853 375.056Z" fill="#FFFB9B" stroke="#FFCC80" stroke-width="1.80468"/>
<path d="M189.193 370.663C189.499 370.663 190.124 370.807 190.681 371.08C190.952 371.213 191.15 371.349 191.268 371.465C191.28 371.477 191.291 371.489 191.301 371.499C191.291 371.509 191.28 371.521 191.268 371.533C191.15 371.649 190.952 371.785 190.681 371.918C190.124 372.191 189.499 372.335 189.193 372.335C188.732 372.335 188.357 371.961 188.357 371.499C188.357 371.037 188.732 370.663 189.193 370.663ZM191.351 371.567C191.351 371.567 191.351 371.566 191.35 371.564C191.351 371.566 191.351 371.567 191.351 371.567ZM191.35 371.434C191.351 371.432 191.351 371.431 191.351 371.431C191.351 371.431 191.351 371.432 191.35 371.434Z" fill="#FFFB9B" stroke="#FFCC80" stroke-width="1.80468"/>
<path d="M191.454 366.943C191.67 367.159 192.01 367.703 192.211 368.289C192.309 368.575 192.352 368.811 192.354 368.976C192.354 368.994 192.353 369.01 192.353 369.024C192.339 369.024 192.323 369.025 192.305 369.024C192.14 369.023 191.904 368.979 191.619 368.882C191.032 368.681 190.488 368.341 190.272 368.125C189.945 367.798 189.945 367.269 190.272 366.943C190.598 366.616 191.127 366.616 191.454 366.943ZM192.341 369.107C192.341 369.107 192.341 369.106 192.342 369.104C192.341 369.106 192.341 369.107 192.341 369.107ZM192.433 369.013C192.435 369.012 192.436 369.012 192.436 369.012C192.436 369.012 192.435 369.012 192.433 369.013Z" fill="#FFFB9B" stroke="#FFCC80" stroke-width="1.80468"/>
<path d="M199.536 368.125C199.319 368.341 198.775 368.681 198.189 368.882C197.903 368.979 197.667 369.023 197.502 369.024C197.484 369.024 197.468 369.024 197.454 369.023C197.454 369.009 197.453 368.994 197.454 368.976C197.455 368.811 197.499 368.574 197.596 368.289C197.797 367.703 198.137 367.158 198.353 366.942C198.68 366.616 199.209 366.616 199.536 366.942C199.862 367.269 199.862 367.798 199.536 368.125ZM197.371 369.011C197.371 369.011 197.372 369.012 197.374 369.012C197.372 369.012 197.371 369.011 197.371 369.011ZM197.465 369.104C197.466 369.106 197.467 369.107 197.466 369.107C197.466 369.107 197.466 369.106 197.465 369.104Z" fill="#FFFB9B" stroke="#FFCC80" stroke-width="1.80468"/>
<mask id="path-78-inside-2_707_330" fill="white">
<path fill-rule="evenodd" clip-rule="evenodd" d="M194.256 343.016C194.202 343.077 194.149 343.139 194.096 343.202C190.459 347.551 191.035 354.025 195.384 357.662C199.733 361.299 206.206 360.723 209.844 356.374C209.896 356.311 209.948 356.248 209.999 356.184L194.256 343.016Z"/>
</mask>
<path fill-rule="evenodd" clip-rule="evenodd" d="M194.256 343.016C194.202 343.077 194.149 343.139 194.096 343.202C190.459 347.551 191.035 354.025 195.384 357.662C199.733 361.299 206.206 360.723 209.844 356.374C209.896 356.311 209.948 356.248 209.999 356.184L194.256 343.016Z" fill="white"/>
<path d="M194.256 343.016L195.414 341.631L194.062 340.5L192.899 341.825L194.256 343.016ZM209.999 356.184L211.41 357.309L212.509 355.93L211.157 354.799L209.999 356.184ZM195.48 344.36C195.524 344.308 195.568 344.256 195.613 344.206L192.899 341.825C192.836 341.898 192.774 341.971 192.712 342.044L195.48 344.36ZM196.542 356.278C192.958 353.28 192.483 347.944 195.48 344.36L192.712 342.044C188.435 347.158 189.113 354.77 194.226 359.046L196.542 356.278ZM208.459 355.216C205.462 358.8 200.126 359.276 196.542 356.278L194.226 359.046C199.339 363.323 206.951 362.645 211.228 357.532L208.459 355.216ZM208.588 355.059C208.546 355.111 208.503 355.164 208.459 355.216L211.228 357.532C211.29 357.458 211.351 357.384 211.41 357.309L208.588 355.059ZM211.157 354.799L195.414 341.631L193.098 344.4L208.841 357.568L211.157 354.799Z" fill="#FFCC80" mask="url(#path-78-inside-2_707_330)"/>
<path d="M201.635 355.553C201.608 355.249 201.696 354.613 201.919 354.034C202.027 353.753 202.145 353.543 202.25 353.416C202.261 353.402 202.271 353.39 202.281 353.38C202.292 353.388 202.304 353.398 202.318 353.41C202.443 353.516 202.597 353.702 202.753 353.96C203.074 354.49 203.273 355.1 203.301 355.405C203.341 355.865 203.002 356.271 202.542 356.312C202.082 356.353 201.676 356.013 201.635 355.553ZM202.344 353.324C202.344 353.324 202.343 353.324 202.341 353.325C202.343 353.324 202.344 353.324 202.344 353.324ZM202.212 353.337C202.21 353.336 202.209 353.336 202.209 353.336C202.209 353.336 202.21 353.336 202.212 353.337Z" fill="white" stroke="#FFCC80" stroke-width="1.80468"/>
<path d="M196.189 349.464C196.493 349.436 197.129 349.525 197.708 349.747C197.989 349.855 198.199 349.973 198.326 350.078C198.34 350.09 198.351 350.1 198.362 350.109C198.353 350.12 198.343 350.133 198.332 350.146C198.225 350.272 198.04 350.426 197.782 350.582C197.251 350.903 196.641 351.102 196.337 351.129C195.877 351.17 195.471 350.83 195.43 350.371C195.389 349.911 195.729 349.505 196.189 349.464ZM198.418 350.172C198.418 350.172 198.417 350.171 198.416 350.169C198.418 350.171 198.418 350.172 198.418 350.172ZM198.405 350.041C198.406 350.039 198.406 350.038 198.406 350.038C198.406 350.038 198.406 350.039 198.405 350.041Z" fill="white" stroke="#FFCC80" stroke-width="1.80468"/>
<path d="M197.696 353.581C197.892 353.347 198.404 352.96 198.971 352.708C199.246 352.585 199.478 352.52 199.642 352.505C199.66 352.503 199.676 352.502 199.689 352.501C199.691 352.515 199.693 352.531 199.695 352.549C199.708 352.713 199.685 352.953 199.613 353.245C199.465 353.847 199.175 354.42 198.979 354.654C198.683 355.008 198.155 355.055 197.801 354.759C197.447 354.463 197.4 353.935 197.696 353.581ZM199.774 352.506C199.774 352.506 199.773 352.506 199.771 352.505C199.773 352.506 199.774 352.506 199.774 352.506ZM199.671 352.422C199.67 352.42 199.67 352.419 199.67 352.419C199.67 352.419 199.671 352.42 199.671 352.422Z" fill="white" stroke="#FFCC80" stroke-width="1.80468"/>
<mask id="path-83-inside-3_707_330" fill="white">
<path fill-rule="evenodd" clip-rule="evenodd" d="M196.42 344.819C196.378 344.86 196.338 344.904 196.3 344.95C195.684 345.686 195.781 346.783 196.518 347.399C197.254 348.014 199.356 348.758 199.972 348.021C200.01 347.975 200.042 347.925 200.068 347.87L196.42 344.819Z"/>
</mask>
<path fill-rule="evenodd" clip-rule="evenodd" d="M196.42 344.819C196.378 344.86 196.338 344.904 196.3 344.95C195.684 345.686 195.781 346.783 196.518 347.399C197.254 348.014 199.356 348.758 199.972 348.021C200.01 347.975 200.042 347.925 200.068 347.87L196.42 344.819Z" fill="white"/>
<path d="M196.299 344.95L197.684 346.108L196.299 344.95ZM196.42 344.819L197.578 343.435L196.327 342.389L195.159 343.528L196.42 344.819ZM196.517 347.398L195.36 348.783L196.517 347.398ZM200.067 347.87L201.702 348.635L202.29 347.377L201.225 346.486L200.067 347.87ZM197.684 346.108C197.683 346.108 197.682 346.109 197.68 346.111L195.159 343.528C195.074 343.611 194.992 343.699 194.915 343.792L197.684 346.108ZM197.675 346.014C197.703 346.038 197.707 346.079 197.684 346.108L194.915 343.792C193.66 345.293 193.859 347.527 195.36 348.783L197.675 346.014ZM198.587 346.863C198.87 346.525 199.183 346.518 199.128 346.523C199.095 346.525 198.959 346.523 198.721 346.465C198.497 346.41 198.257 346.323 198.045 346.224C197.94 346.175 197.852 346.128 197.784 346.087C197.75 346.066 197.723 346.049 197.704 346.035C197.694 346.029 197.687 346.023 197.682 346.02C197.677 346.016 197.675 346.014 197.675 346.014L195.36 348.783C195.996 349.315 196.98 349.753 197.859 349.97C198.315 350.082 198.866 350.166 199.423 350.12C199.958 350.076 200.765 349.885 201.356 349.179L198.587 346.863ZM198.433 347.106C198.469 347.027 198.52 346.944 198.587 346.863L201.356 349.179C201.5 349.007 201.614 348.823 201.702 348.635L198.433 347.106ZM201.225 346.486L197.578 343.435L195.262 346.204L198.909 349.254L201.225 346.486Z" fill="#FFCC80" mask="url(#path-83-inside-3_707_330)"/>
<mask id="path-85-inside-4_707_330" fill="white">
<path fill-rule="evenodd" clip-rule="evenodd" d="M200.981 348.634C200.938 348.675 200.897 348.718 200.858 348.764C200.322 349.405 200.407 350.359 201.048 350.895C201.689 351.431 202.643 351.346 203.179 350.705C203.218 350.659 203.253 350.611 203.285 350.562L200.981 348.634Z"/>
</mask>
<path fill-rule="evenodd" clip-rule="evenodd" d="M200.981 348.634C200.938 348.675 200.897 348.718 200.858 348.764C200.322 349.405 200.407 350.359 201.048 350.895C201.689 351.431 202.643 351.346 203.179 350.705C203.218 350.659 203.253 350.611 203.285 350.562L200.981 348.634Z" fill="white"/>
<path d="M200.981 348.634L202.138 347.25L200.907 346.22L199.741 347.323L200.981 348.634ZM203.285 350.562L204.795 351.551L205.675 350.208L204.443 349.178L203.285 350.562ZM202.243 349.922C202.236 349.93 202.229 349.938 202.221 349.945L199.741 347.323C199.647 347.411 199.558 347.506 199.474 347.606L202.243 349.922ZM202.206 349.511C202.33 349.614 202.346 349.798 202.243 349.922L199.474 347.606C198.299 349.012 198.485 351.104 199.89 352.279L202.206 349.511ZM201.795 349.547C201.898 349.424 202.082 349.407 202.206 349.511L199.89 352.279C201.296 353.455 203.388 353.269 204.563 351.863L201.795 349.547ZM201.776 349.573C201.782 349.564 201.788 349.555 201.795 349.547L204.563 351.863C204.647 351.763 204.725 351.658 204.795 351.551L201.776 349.573ZM204.443 349.178L202.138 347.25L199.823 350.018L202.128 351.946L204.443 349.178Z" fill="#FFCC80" mask="url(#path-85-inside-4_707_330)"/>
<mask id="path-87-inside-5_707_330" fill="white">
<path fill-rule="evenodd" clip-rule="evenodd" d="M204.184 351.326C204.137 351.36 204.095 351.399 204.058 351.443C203.442 352.179 204.545 354.116 205.282 354.732C206.018 355.348 207.114 355.251 207.73 354.514C207.767 354.47 207.801 354.425 207.833 354.378L204.184 351.326Z"/>
</mask>
<path fill-rule="evenodd" clip-rule="evenodd" d="M204.184 351.326C204.137 351.36 204.095 351.399 204.058 351.443C203.442 352.179 204.545 354.116 205.282 354.732C206.018 355.348 207.114 355.251 207.73 354.514C207.767 354.47 207.801 354.425 207.833 354.378L204.184 351.326Z" fill="white"/>
<path d="M204.058 351.443L205.442 352.601L204.058 351.443ZM204.184 351.326L205.341 349.942L204.265 349.042L203.128 349.863L204.184 351.326ZM207.833 354.379L209.323 355.397L210.247 354.045L208.991 352.994L207.833 354.379ZM205.442 352.601C205.378 352.678 205.308 352.74 205.24 352.79L203.128 349.863C202.966 349.98 202.812 350.12 202.674 350.285L205.442 352.601ZM206.439 353.348C206.439 353.348 206.437 353.346 206.433 353.342C206.428 353.338 206.422 353.332 206.413 353.324C206.397 353.307 206.375 353.284 206.349 353.254C206.296 353.194 206.234 353.116 206.168 353.022C206.032 352.83 205.905 352.609 205.811 352.399C205.712 352.175 205.685 352.042 205.682 352.008C205.677 351.953 205.725 352.263 205.442 352.601L202.674 350.285C202.083 350.991 202.038 351.819 202.089 352.353C202.143 352.91 202.323 353.437 202.514 353.867C202.882 354.694 203.488 355.585 204.124 356.117L206.439 353.348ZM206.346 353.356C206.369 353.328 206.411 353.325 206.439 353.348L204.124 356.117C205.624 357.372 207.859 357.173 209.114 355.672L206.346 353.356ZM206.343 353.36C206.344 353.358 206.345 353.357 206.346 353.356L209.114 355.672C209.189 355.583 209.258 355.492 209.323 355.397L206.343 353.36ZM208.991 352.994L205.341 349.942L203.026 352.71L206.675 355.763L208.991 352.994Z" fill="#FFCC80" mask="url(#path-87-inside-5_707_330)"/>
<rect x="187.036" y="350.568" width="7.04655" height="7.04655" rx="2.45135" transform="rotate(15 187.036 350.568)" fill="#E0E7FF" fill-opacity="0.68" stroke="white" stroke-width="1.80468"/>
<rect x="200.45" y="370.627" width="7.04655" height="7.04655" rx="2.45135" transform="rotate(15 200.45 370.627)" fill="#E0E7FF" fill-opacity="0.68" stroke="white" stroke-width="1.80468"/>
<rect x="196.739" y="341.828" width="7.04655" height="7.04655" rx="2.45135" transform="rotate(15 196.739 341.828)" fill="#E0E7FF" fill-opacity="0.68" stroke="white" stroke-width="1.80468"/>
<circle cx="224.4" cy="477.524" r="3.50876" fill="#00CF6F"/>
<circle cx="233.766" cy="477.524" r="3.50876" fill="#FFA2A2"/>
<circle cx="158.021" cy="376.39" r="9.35671" fill="#FFF0A5"/>
<ellipse cx="178.012" cy="394.444" rx="52.0467" ry="14.6199" fill="#D7DEFF"/>
<ellipse cx="178.012" cy="392.104" rx="52.0467" ry="14.6199" fill="white"/>
<ellipse cx="178.013" cy="393.274" rx="22.807" ry="6.43273" fill="#D1E3FF"/>
<path fill-rule="evenodd" clip-rule="evenodd" d="M207.245 384.167C207.245 384.154 207.245 384.14 207.245 384.127C207.245 384.113 207.245 384.1 207.245 384.087V378.278H201.599C196.884 376.139 189.639 374.77 181.514 374.77C173.39 374.77 166.145 376.139 161.429 378.278H155.783V384.36L155.791 384.363C156.13 389.348 167.195 393.366 180.911 393.481L180.916 393.482L180.92 393.481C181.117 393.483 181.315 393.483 181.514 393.483C195.508 393.483 206.893 389.421 207.237 384.362L207.245 384.36V384.167Z" fill="#E7A4A4"/>
<ellipse cx="181.511" cy="378.069" rx="26.3116" ry="9.72384" fill="#F1B7B7"/>
<path d="M161.961 381.05C170.773 381.457 191.986 380.183 206.345 371.829" stroke="#6EBA97" stroke-width="2.01212" stroke-linecap="round"/>
<path d="M170.815 376.637L170.452 377.119C169.275 378.678 170.353 380.888 172.305 380.811C187.961 380.188 201.863 374.414 207.784 371.056C208.15 370.849 208.316 370.416 208.195 370.013C208.037 369.492 207.461 369.223 206.96 369.438L205.766 369.949C205.341 370.131 204.875 369.795 204.912 369.334C204.949 368.881 204.498 368.547 204.075 368.713L203.147 369.077C202.779 369.221 202.502 369.533 202.402 369.915L202.084 371.132C201.982 371.52 201.703 371.836 201.331 371.985L200.599 372.277C200.046 372.497 199.458 372.05 199.523 371.459C199.586 370.888 199.038 370.444 198.494 370.624L197.856 370.834C197.453 370.967 197.147 371.3 197.051 371.714L196.752 372.992C196.641 373.468 196.284 373.847 195.817 373.988L194.954 374.247C194.312 374.439 193.708 373.855 193.878 373.207C194.044 372.572 193.465 371.993 192.83 372.16L192.279 372.305C191.871 372.413 191.551 372.728 191.437 373.134L190.944 374.886C190.818 375.336 190.451 375.678 189.994 375.774L189.436 375.891C188.758 376.034 188.173 375.399 188.371 374.735C188.563 374.089 188.015 373.464 187.349 373.57L187.193 373.595C186.81 373.656 186.496 373.929 186.382 374.3L185.866 375.982C185.731 376.421 185.361 376.748 184.909 376.828L184.582 376.886C183.837 377.017 183.217 376.305 183.432 375.579C183.637 374.886 183.067 374.198 182.35 374.29C181.985 374.336 181.675 374.579 181.542 374.922L180.804 376.835C180.61 377.338 180.164 377.7 179.632 377.788L178.668 377.946C177.881 378.076 177.271 377.265 177.601 376.539C177.933 375.81 177.309 375.001 176.523 375.15C176.238 375.203 175.991 375.38 175.847 375.632L174.398 378.176C174.228 378.474 173.925 378.672 173.584 378.707L173.179 378.749C172.506 378.818 172.029 378.109 172.346 377.512C172.675 376.892 172.149 376.165 171.458 376.283L171.374 376.297C171.151 376.335 170.951 376.457 170.815 376.637Z" fill="#6EBA97"/>
<circle cx="147.596" cy="383.918" r="9.35671" fill="#FFF0A5"/>
<circle cx="159.465" cy="389.18" r="9.35671" fill="#FFF0A5"/>
<circle cx="137.661" cy="388.011" r="5.84794" fill="#FFF0A5"/>
<circle cx="213.092" cy="384.502" r="9.35671" fill="#FFF0A5"/>
<circle cx="199.633" cy="393.275" r="5.84794" fill="#FFF0A5"/>
</g>
<rect x="63.8105" y="200.274" width="468.944" height="20.8826" fill="white"/>
<path fill-rule="evenodd" clip-rule="evenodd" d="M85.9102 209.972H79.0841L82.2174 206.839L81.4341 206.055L76.958 210.532L81.4341 215.008L82.2174 214.224L79.0841 211.091H85.9102V209.972V209.972Z" fill="#7681AB"/>
<rect x="465.604" y="206.916" width="8.57721" height="8.57721" rx="3.05373" fill="#7681AB"/>
<g filter="url(#filter2_d_707_330)">
<path fill-rule="evenodd" clip-rule="evenodd" d="M29.8891 239.124C28.4219 239.124 27.2324 240.314 27.2324 241.781V278.134C27.2324 279.602 28.4219 280.791 29.8891 280.791H165.399C166.866 280.791 168.055 279.602 168.055 278.134V241.781C168.055 240.314 166.866 239.124 165.399 239.124H29.8891Z" fill="#A880FF"/>
<path d="M70.6267 270.925V250.86H78.5431C80.065 250.86 81.3616 251.15 82.4328 251.732C83.504 252.306 84.3204 253.107 84.8822 254.132C85.4504 255.151 85.7346 256.327 85.7346 257.659C85.7346 258.992 85.4472 260.167 84.8724 261.186C84.2976 262.205 83.4648 262.999 82.374 263.567C81.2897 264.135 79.9769 264.419 78.4354 264.419H73.3896V261.02H77.7495C78.566 261.02 79.2388 260.879 79.7678 260.598C80.3034 260.311 80.7019 259.916 80.9631 259.413C81.2309 258.903 81.3648 258.319 81.3648 257.659C81.3648 256.993 81.2309 256.412 80.9631 255.915C80.7019 255.412 80.3034 255.024 79.7678 254.749C79.2322 254.468 78.5529 254.328 77.7299 254.328H74.869V270.925H70.6267ZM106.929 260.892C106.929 263.08 106.514 264.942 105.685 266.477C104.862 268.012 103.738 269.184 102.315 269.994C100.897 270.798 99.3034 271.199 97.5333 271.199C95.7501 271.199 94.1499 270.794 92.7325 269.984C91.3151 269.175 90.1949 268.002 89.3719 266.467C88.5489 264.932 88.1374 263.074 88.1374 260.892C88.1374 258.704 88.5489 256.843 89.3719 255.308C90.1949 253.773 91.3151 252.604 92.7325 251.8C94.1499 250.99 95.7501 250.585 97.5333 250.585C99.3034 250.585 100.897 250.99 102.315 251.8C103.738 252.604 104.862 253.773 105.685 255.308C106.514 256.843 106.929 258.704 106.929 260.892ZM102.628 260.892C102.628 259.475 102.416 258.28 101.991 257.306C101.573 256.333 100.982 255.595 100.218 255.092C99.4536 254.589 98.5588 254.338 97.5333 254.338C96.5078 254.338 95.613 254.589 94.8488 255.092C94.0846 255.595 93.4902 256.333 93.0656 257.306C92.6476 258.28 92.4386 259.475 92.4386 260.892C92.4386 262.31 92.6476 263.505 93.0656 264.478C93.4902 265.451 94.0846 266.19 94.8488 266.692C95.613 267.195 96.5078 267.447 97.5333 267.447C98.5588 267.447 99.4536 267.195 100.218 266.692C100.982 266.19 101.573 265.451 101.991 264.478C102.416 263.505 102.628 262.31 102.628 260.892ZM120.957 256.63C120.879 255.84 120.542 255.226 119.948 254.788C119.353 254.351 118.547 254.132 117.528 254.132C116.835 254.132 116.251 254.23 115.774 254.426C115.297 254.615 114.931 254.88 114.677 255.22C114.428 255.559 114.304 255.945 114.304 256.376C114.291 256.735 114.366 257.048 114.53 257.316C114.699 257.584 114.931 257.816 115.225 258.012C115.519 258.201 115.859 258.368 116.244 258.512C116.63 258.649 117.041 258.766 117.479 258.864L119.281 259.295C120.157 259.491 120.96 259.753 121.692 260.079C122.423 260.406 123.057 260.807 123.592 261.284C124.128 261.761 124.543 262.323 124.837 262.969C125.137 263.616 125.291 264.357 125.297 265.193C125.291 266.421 124.977 267.486 124.357 268.387C123.743 269.282 122.854 269.978 121.692 270.474C120.536 270.964 119.141 271.209 117.508 271.209C115.888 271.209 114.477 270.961 113.276 270.465C112.08 269.968 111.146 269.233 110.473 268.26C109.807 267.28 109.458 266.069 109.425 264.625H113.53C113.576 265.298 113.769 265.86 114.108 266.31C114.455 266.755 114.915 267.091 115.49 267.32C116.071 267.542 116.728 267.653 117.459 267.653C118.178 267.653 118.801 267.548 119.33 267.339C119.866 267.13 120.281 266.839 120.575 266.467C120.869 266.095 121.016 265.667 121.016 265.184C121.016 264.733 120.882 264.354 120.614 264.047C120.353 263.74 119.967 263.479 119.458 263.263C118.955 263.048 118.338 262.852 117.606 262.675L115.421 262.127C113.73 261.715 112.394 261.072 111.414 260.197C110.434 259.321 109.948 258.142 109.954 256.66C109.948 255.445 110.271 254.383 110.924 253.476C111.584 252.568 112.489 251.859 113.638 251.349C114.788 250.84 116.094 250.585 117.557 250.585C119.046 250.585 120.346 250.84 121.457 251.349C122.573 251.859 123.442 252.568 124.063 253.476C124.683 254.383 125.003 255.435 125.023 256.63H120.957Z" fill="white"/>
</g>
<g opacity="0.5" filter="url(#filter3_d_707_330)">
<rect x="331.537" y="402.451" width="184.037" height="226.549" rx="8.81501" fill="white"/>
</g>
<g filter="url(#filter4_d_707_330)">
<rect x="340.77" y="392.217" width="184.037" height="226.549" rx="8.81501" fill="white"/>
<path d="M364.675 432.34L360.469 426.76H359.523V432.34H356.755V419.249H359.523V424.478H360.079L364.425 419.249H367.871L362.763 425.322L368.107 432.34H364.675ZM373.163 432.532C372.17 432.532 371.312 432.321 370.587 431.899C369.867 431.473 369.311 430.881 368.919 430.122C368.527 429.359 368.331 428.475 368.331 427.469C368.331 426.455 368.527 425.569 368.919 424.81C369.311 424.047 369.867 423.455 370.587 423.033C371.312 422.607 372.17 422.394 373.163 422.394C374.156 422.394 375.013 422.607 375.733 423.033C376.457 423.455 377.016 424.047 377.408 424.81C377.8 425.569 377.996 426.455 377.996 427.469C377.996 428.475 377.8 429.359 377.408 430.122C377.016 430.881 376.457 431.473 375.733 431.899C375.013 432.321 374.156 432.532 373.163 432.532ZM373.176 430.422C373.628 430.422 374.005 430.295 374.308 430.039C374.61 429.779 374.838 429.425 374.991 428.978C375.149 428.53 375.228 428.021 375.228 427.45C375.228 426.879 375.149 426.37 374.991 425.922C374.838 425.475 374.61 425.121 374.308 424.861C374.005 424.601 373.628 424.471 373.176 424.471C372.72 424.471 372.337 424.601 372.026 424.861C371.719 425.121 371.487 425.475 371.329 425.922C371.175 426.37 371.099 426.879 371.099 427.45C371.099 428.021 371.175 428.53 371.329 428.978C371.487 429.425 371.719 429.779 372.026 430.039C372.337 430.295 372.72 430.422 373.176 430.422ZM386.599 426.344V428.486H381.473V426.344H386.599ZM382.368 422.522V432.34H379.766V422.522H382.368ZM388.306 422.522V432.34H385.724V422.522H388.306ZM389.433 424.663V422.522H398.33V424.663H395.166V432.34H392.571V424.663H389.433ZM399.981 436.022V422.522H402.666V424.171H402.787C402.907 423.907 403.079 423.638 403.305 423.366C403.535 423.089 403.833 422.859 404.2 422.675C404.571 422.488 405.031 422.394 405.581 422.394C406.297 422.394 406.957 422.582 407.562 422.957C408.167 423.327 408.651 423.888 409.013 424.638C409.375 425.383 409.556 426.319 409.556 427.444C409.556 428.539 409.38 429.464 409.026 430.218C408.676 430.968 408.199 431.537 407.594 431.925C406.993 432.308 406.32 432.5 405.574 432.5C405.046 432.5 404.596 432.413 404.225 432.238C403.859 432.063 403.559 431.844 403.324 431.579C403.09 431.311 402.911 431.04 402.787 430.768H402.704V436.022H399.981ZM402.647 427.431C402.647 428.015 402.728 428.524 402.89 428.959C403.051 429.393 403.286 429.732 403.593 429.975C403.9 430.214 404.272 430.333 404.711 430.333C405.154 430.333 405.529 430.212 405.836 429.969C406.143 429.721 406.375 429.381 406.533 428.946C406.695 428.507 406.776 428.002 406.776 427.431C406.776 426.864 406.697 426.366 406.539 425.935C406.382 425.505 406.15 425.168 405.843 424.925C405.536 424.682 405.159 424.561 404.711 424.561C404.268 424.561 403.893 424.678 403.586 424.913C403.284 425.147 403.051 425.479 402.89 425.91C402.728 426.34 402.647 426.847 402.647 427.431ZM415.808 432.532C414.815 432.532 413.956 432.321 413.232 431.899C412.512 431.473 411.956 430.881 411.564 430.122C411.172 429.359 410.975 428.475 410.975 427.469C410.975 426.455 411.172 425.569 411.564 424.81C411.956 424.047 412.512 423.455 413.232 423.033C413.956 422.607 414.815 422.394 415.808 422.394C416.801 422.394 417.657 422.607 418.377 423.033C419.102 423.455 419.66 424.047 420.052 424.81C420.444 425.569 420.64 426.455 420.64 427.469C420.64 428.475 420.444 429.359 420.052 430.122C419.66 430.881 419.102 431.473 418.377 431.899C417.657 432.321 416.801 432.532 415.808 432.532ZM415.821 430.422C416.272 430.422 416.65 430.295 416.952 430.039C417.255 429.779 417.483 429.425 417.636 428.978C417.794 428.53 417.873 428.021 417.873 427.45C417.873 426.879 417.794 426.37 417.636 425.922C417.483 425.475 417.255 425.121 416.952 424.861C416.65 424.601 416.272 424.471 415.821 424.471C415.365 424.471 414.981 424.601 414.67 424.861C414.363 425.121 414.131 425.475 413.973 425.922C413.82 426.37 413.743 426.879 413.743 427.45C413.743 428.021 413.82 428.53 413.973 428.978C414.131 429.425 414.363 429.779 414.67 430.039C414.981 430.295 415.365 430.422 415.821 430.422ZM421.836 432.34L421.823 430.18H422.149C422.379 430.18 422.577 430.124 422.743 430.013C422.914 429.898 423.054 429.713 423.165 429.457C423.276 429.202 423.363 428.863 423.427 428.441C423.491 428.015 423.534 427.491 423.555 426.868L423.715 422.522H431.181V432.34H428.586V424.663H426.163L426.01 427.661C425.971 428.484 425.871 429.191 425.709 429.783C425.551 430.376 425.332 430.861 425.051 431.241C424.77 431.616 424.431 431.893 424.034 432.072C423.638 432.251 423.178 432.34 422.654 432.34H421.836ZM434.998 425.539H437.932C439.232 425.539 440.246 425.85 440.975 426.472C441.704 427.09 442.068 427.917 442.068 428.952C442.068 429.626 441.904 430.218 441.576 430.729C441.248 431.236 440.775 431.633 440.157 431.918C439.539 432.199 438.797 432.34 437.932 432.34H433.292V422.522H435.893V430.199H437.932C438.388 430.199 438.763 430.084 439.057 429.854C439.351 429.623 439.501 429.329 439.505 428.971C439.501 428.592 439.351 428.283 439.057 428.045C438.763 427.802 438.388 427.68 437.932 427.68H434.998V425.539Z" fill="#7681AB"/>
<path d="M359.323 471.125C358.689 471.125 358.148 470.952 357.702 470.607C357.255 470.259 356.914 469.755 356.678 469.095C356.443 468.432 356.325 467.632 356.325 466.695C356.325 465.762 356.443 464.967 356.678 464.307C356.917 463.644 357.26 463.139 357.706 462.791C358.155 462.44 358.694 462.264 359.323 462.264C359.952 462.264 360.49 462.44 360.936 462.791C361.385 463.139 361.728 463.644 361.963 464.307C362.202 464.967 362.321 465.762 362.321 466.695C362.321 467.632 362.204 468.432 361.968 469.095C361.732 469.755 361.391 470.259 360.944 470.607C360.498 470.952 359.958 471.125 359.323 471.125ZM359.323 470.198C359.952 470.198 360.44 469.895 360.789 469.289C361.137 468.682 361.311 467.818 361.311 466.695C361.311 465.948 361.231 465.312 361.071 464.787C360.913 464.262 360.686 463.862 360.388 463.587C360.094 463.312 359.739 463.174 359.323 463.174C358.7 463.174 358.213 463.481 357.862 464.096C357.511 464.708 357.335 465.574 357.335 466.695C357.335 467.441 357.414 468.076 357.571 468.598C357.728 469.12 357.954 469.517 358.249 469.79C358.547 470.062 358.905 470.198 359.323 470.198ZM366.785 471.125C366.432 471.119 366.078 471.052 365.724 470.923C365.37 470.793 365.047 470.576 364.756 470.27C364.464 469.961 364.229 469.544 364.052 469.019C363.875 468.491 363.787 467.829 363.787 467.031C363.787 466.268 363.859 465.591 364.002 465.002C364.145 464.409 364.353 463.911 364.625 463.507C364.897 463.1 365.226 462.791 365.61 462.58C365.998 462.37 366.434 462.264 366.92 462.264C367.403 462.264 367.832 462.361 368.209 462.555C368.588 462.746 368.897 463.013 369.135 463.355C369.374 463.698 369.528 464.092 369.598 464.538H368.571C368.475 464.151 368.29 463.83 368.015 463.574C367.74 463.319 367.375 463.191 366.92 463.191C366.252 463.191 365.725 463.481 365.341 464.063C364.959 464.644 364.767 465.459 364.764 466.509H364.831C364.989 466.271 365.175 466.067 365.391 465.899C365.61 465.727 365.852 465.595 366.116 465.503C366.38 465.41 366.659 465.364 366.954 465.364C367.448 465.364 367.9 465.487 368.31 465.734C368.72 465.979 369.048 466.317 369.295 466.749C369.542 467.179 369.666 467.672 369.666 468.227C369.666 468.761 369.546 469.249 369.308 469.693C369.069 470.134 368.734 470.485 368.301 470.746C367.872 471.004 367.366 471.13 366.785 471.125ZM366.785 470.198C367.139 470.198 367.456 470.11 367.737 469.933C368.021 469.756 368.244 469.519 368.407 469.221C368.572 468.924 368.655 468.592 368.655 468.227C368.655 467.871 368.575 467.547 368.415 467.255C368.258 466.96 368.04 466.725 367.762 466.551C367.487 466.377 367.173 466.29 366.819 466.29C366.552 466.29 366.304 466.344 366.074 466.45C365.843 466.554 365.641 466.697 365.467 466.88C365.296 467.062 365.161 467.271 365.063 467.507C364.965 467.74 364.916 467.986 364.916 468.244C364.916 468.587 364.996 468.907 365.156 469.204C365.318 469.502 365.54 469.742 365.821 469.925C366.105 470.107 366.426 470.198 366.785 470.198ZM371.658 471.074C371.45 471.074 371.272 471 371.123 470.851C370.974 470.702 370.9 470.524 370.9 470.316C370.9 470.108 370.974 469.93 371.123 469.781C371.272 469.633 371.45 469.558 371.658 469.558C371.865 469.558 372.044 469.633 372.193 469.781C372.341 469.93 372.416 470.108 372.416 470.316C372.416 470.454 372.381 470.58 372.31 470.695C372.243 470.81 372.152 470.903 372.037 470.973C371.924 471.041 371.798 471.074 371.658 471.074ZM376.694 471.125C376.06 471.125 375.519 470.952 375.073 470.607C374.627 470.259 374.285 469.755 374.05 469.095C373.814 468.432 373.696 467.632 373.696 466.695C373.696 465.762 373.814 464.967 374.05 464.307C374.288 463.644 374.631 463.139 375.077 462.791C375.526 462.44 376.065 462.264 376.694 462.264C377.323 462.264 377.861 462.44 378.307 462.791C378.756 463.139 379.099 463.644 379.335 464.307C379.573 464.967 379.693 465.762 379.693 466.695C379.693 467.632 379.575 468.432 379.339 469.095C379.103 469.755 378.762 470.259 378.316 470.607C377.869 470.952 377.329 471.125 376.694 471.125ZM376.694 470.198C377.323 470.198 377.812 469.895 378.16 469.289C378.508 468.682 378.682 467.818 378.682 466.695C378.682 465.948 378.602 465.312 378.442 464.787C378.285 464.262 378.057 463.862 377.76 463.587C377.465 463.312 377.11 463.174 376.694 463.174C376.071 463.174 375.584 463.481 375.233 464.096C374.882 464.708 374.707 465.574 374.707 466.695C374.707 467.441 374.785 468.076 374.942 468.598C375.1 469.12 375.326 469.517 375.62 469.79C375.918 470.062 376.276 470.198 376.694 470.198ZM383.988 471.125C383.494 471.125 383.049 471.026 382.653 470.83C382.257 470.633 381.94 470.364 381.701 470.021C381.463 469.679 381.332 469.289 381.31 468.851H382.32C382.36 469.241 382.537 469.564 382.851 469.819C383.168 470.072 383.547 470.198 383.988 470.198C384.342 470.198 384.656 470.115 384.931 469.95C385.209 469.784 385.427 469.557 385.584 469.268C385.744 468.976 385.824 468.646 385.824 468.278C385.824 467.902 385.741 467.566 385.576 467.271C385.413 466.974 385.188 466.739 384.902 466.568C384.616 466.397 384.288 466.31 383.921 466.307C383.657 466.304 383.386 466.345 383.108 466.429C382.83 466.511 382.601 466.616 382.422 466.745L381.445 466.627L381.967 462.382H386.447V463.309H382.843L382.539 465.852H382.59C382.767 465.712 382.989 465.595 383.255 465.503C383.522 465.41 383.8 465.364 384.089 465.364C384.617 465.364 385.087 465.49 385.5 465.743C385.915 465.993 386.241 466.335 386.477 466.77C386.716 467.206 386.835 467.702 386.835 468.261C386.835 468.811 386.711 469.303 386.464 469.735C386.22 470.165 385.883 470.504 385.454 470.754C385.024 471.001 384.536 471.125 383.988 471.125ZM388.925 471.074C388.717 471.074 388.539 471 388.39 470.851C388.241 470.702 388.167 470.524 388.167 470.316C388.167 470.108 388.241 469.93 388.39 469.781C388.539 469.633 388.717 469.558 388.925 469.558C389.132 469.558 389.311 469.633 389.46 469.781C389.608 469.93 389.683 470.108 389.683 470.316C389.683 470.454 389.648 470.58 389.577 470.695C389.51 470.81 389.419 470.903 389.304 470.973C389.191 471.041 389.065 471.074 388.925 471.074ZM391.449 471.007V470.249L394.296 467.133C394.63 466.768 394.905 466.45 395.121 466.181C395.338 465.908 395.498 465.653 395.602 465.414C395.708 465.173 395.762 464.92 395.762 464.656C395.762 464.353 395.689 464.091 395.543 463.869C395.399 463.647 395.203 463.476 394.953 463.355C394.703 463.234 394.422 463.174 394.111 463.174C393.78 463.174 393.49 463.243 393.243 463.38C392.999 463.515 392.81 463.705 392.675 463.949C392.543 464.193 392.477 464.479 392.477 464.808H391.483C391.483 464.303 391.6 463.859 391.833 463.477C392.066 463.095 392.383 462.798 392.784 462.584C393.189 462.371 393.642 462.264 394.144 462.264C394.65 462.264 395.098 462.371 395.488 462.584C395.878 462.798 396.184 463.086 396.406 463.448C396.628 463.81 396.739 464.213 396.739 464.656C396.739 464.974 396.681 465.284 396.566 465.587C396.454 465.887 396.257 466.223 395.976 466.593C395.698 466.961 395.312 467.41 394.818 467.941L392.881 470.013V470.08H396.89V471.007H391.449ZM401.661 462.382V471.007H400.617V463.477H400.567L398.461 464.875V463.814L400.617 462.382H401.661Z" fill="#7681AB"/>
<path d="M363.113 488.9V497.525H362.069V489.827H357.723V497.525H356.678V488.9H363.113ZM365.085 499.951V491.056H366.045V492.084H366.163C366.236 491.972 366.337 491.829 366.466 491.654C366.598 491.478 366.786 491.32 367.031 491.183C367.278 491.042 367.612 490.972 368.033 490.972C368.578 490.972 369.058 491.108 369.473 491.381C369.889 491.653 370.213 492.039 370.446 492.539C370.679 493.039 370.795 493.628 370.795 494.308C370.795 494.993 370.679 495.586 370.446 496.089C370.213 496.589 369.89 496.976 369.477 497.251C369.065 497.523 368.589 497.66 368.05 497.66C367.634 497.66 367.302 497.591 367.052 497.453C366.802 497.313 366.609 497.154 366.475 496.977C366.34 496.798 366.236 496.649 366.163 496.531H366.079V499.951H365.085ZM366.062 494.291C366.062 494.779 366.134 495.21 366.277 495.584C366.42 495.954 366.629 496.245 366.904 496.455C367.179 496.663 367.516 496.767 367.915 496.767C368.33 496.767 368.677 496.657 368.955 496.438C369.236 496.217 369.446 495.919 369.587 495.546C369.73 495.169 369.802 494.751 369.802 494.291C369.802 493.836 369.731 493.426 369.591 493.061C369.453 492.693 369.244 492.403 368.964 492.189C368.686 491.973 368.336 491.865 367.915 491.865C367.511 491.865 367.171 491.968 366.896 492.172C366.621 492.375 366.413 492.658 366.273 493.023C366.132 493.385 366.062 493.808 366.062 494.291ZM373.305 496.059L376.422 491.056H377.567V497.525H376.573V492.522L373.474 497.525H372.311V491.056H373.305V496.059ZM380.129 491.056L381.678 493.701L383.228 491.056H384.373L382.285 494.291L384.373 497.525H383.228L381.678 495.015L380.129 497.525H378.983L381.038 494.291L378.983 491.056H380.129ZM388.153 497.66C387.569 497.66 387.057 497.521 386.616 497.243C386.178 496.965 385.835 496.576 385.588 496.076C385.344 495.577 385.222 494.993 385.222 494.324C385.222 493.651 385.344 493.062 385.588 492.56C385.835 492.057 386.178 491.667 386.616 491.389C387.057 491.111 387.569 490.972 388.153 490.972C388.737 490.972 389.248 491.111 389.686 491.389C390.127 491.667 390.469 492.057 390.713 492.56C390.96 493.062 391.084 493.651 391.084 494.324C391.084 494.993 390.96 495.577 390.713 496.076C390.469 496.576 390.127 496.965 389.686 497.243C389.248 497.521 388.737 497.66 388.153 497.66ZM388.153 496.767C388.597 496.767 388.962 496.653 389.248 496.426C389.534 496.198 389.746 495.899 389.884 495.529C390.021 495.158 390.09 494.757 390.09 494.324C390.09 493.892 390.021 493.489 389.884 493.116C389.746 492.742 389.534 492.441 389.248 492.21C388.962 491.98 388.597 491.865 388.153 491.865C387.709 491.865 387.344 491.98 387.058 492.21C386.772 492.441 386.56 492.742 386.422 493.116C386.285 493.489 386.216 493.892 386.216 494.324C386.216 494.757 386.285 495.158 386.422 495.529C386.56 495.899 386.772 496.198 387.058 496.426C387.344 496.653 387.709 496.767 388.153 496.767ZM391.91 499.378V496.598H392.449C392.581 496.461 392.695 496.312 392.791 496.152C392.886 495.992 392.969 495.803 393.039 495.584C393.112 495.362 393.174 495.092 393.224 494.775C393.275 494.455 393.32 494.069 393.359 493.617L393.578 491.056H397.688V496.598H398.682V499.378H397.688V497.525H392.904V499.378H391.91ZM393.578 496.598H396.694V491.983H394.505L394.336 493.617C394.266 494.294 394.179 494.884 394.075 495.39C393.971 495.895 393.805 496.298 393.578 496.598Z" fill="#7681AB"/>
<path d="M356.662 524.042V515.418H359.576C360.252 515.418 360.805 515.54 361.235 515.784C361.667 516.026 361.987 516.353 362.195 516.766C362.403 517.178 362.507 517.639 362.507 518.147C362.507 518.655 362.403 519.117 362.195 519.532C361.99 519.948 361.673 520.279 361.243 520.526C360.814 520.77 360.264 520.892 359.593 520.892H357.504V519.966H359.559C360.022 519.966 360.394 519.886 360.675 519.726C360.956 519.566 361.159 519.35 361.285 519.077C361.415 518.802 361.479 518.492 361.479 518.147C361.479 517.801 361.415 517.493 361.285 517.22C361.159 516.948 360.954 516.735 360.671 516.58C360.387 516.423 360.011 516.344 359.542 516.344H357.706V524.042H356.662ZM365.958 524.194C365.548 524.194 365.176 524.117 364.842 523.962C364.508 523.805 364.242 523.579 364.046 523.284C363.849 522.987 363.751 522.628 363.751 522.206C363.751 521.836 363.824 521.535 363.97 521.305C364.116 521.072 364.311 520.89 364.555 520.758C364.8 520.626 365.069 520.528 365.364 520.463C365.662 520.396 365.961 520.342 366.261 520.303C366.654 520.252 366.973 520.214 367.217 520.189C367.464 520.161 367.644 520.115 367.756 520.05C367.871 519.986 367.929 519.873 367.929 519.713V519.68C367.929 519.264 367.815 518.941 367.588 518.711C367.363 518.481 367.022 518.366 366.564 518.366C366.09 518.366 365.718 518.47 365.448 518.677C365.179 518.885 364.989 519.107 364.88 519.343L363.936 519.006C364.105 518.613 364.329 518.307 364.61 518.088C364.894 517.866 365.203 517.712 365.537 517.625C365.874 517.535 366.205 517.49 366.531 517.49C366.738 517.49 366.977 517.515 367.246 517.566C367.519 517.613 367.781 517.713 368.034 517.865C368.289 518.016 368.501 518.245 368.67 518.551C368.838 518.857 368.923 519.267 368.923 519.781V524.042H367.929V523.167H367.878C367.811 523.307 367.698 523.457 367.541 523.617C367.384 523.777 367.175 523.913 366.914 524.026C366.653 524.138 366.334 524.194 365.958 524.194ZM366.109 523.301C366.502 523.301 366.834 523.224 367.103 523.07C367.376 522.915 367.581 522.716 367.718 522.472C367.858 522.227 367.929 521.971 367.929 521.701V520.791C367.887 520.842 367.794 520.888 367.651 520.93C367.51 520.97 367.348 521.005 367.162 521.036C366.98 521.064 366.801 521.089 366.627 521.111C366.456 521.131 366.317 521.148 366.21 521.162C365.952 521.196 365.711 521.25 365.486 521.326C365.264 521.399 365.085 521.51 364.947 521.659C364.812 521.805 364.745 522.004 364.745 522.257C364.745 522.602 364.873 522.863 365.128 523.04C365.386 523.214 365.714 523.301 366.109 523.301ZM373.364 524.177C372.758 524.177 372.236 524.034 371.798 523.748C371.36 523.461 371.023 523.067 370.787 522.564C370.551 522.062 370.433 521.488 370.433 520.842C370.433 520.185 370.554 519.605 370.795 519.103C371.04 518.597 371.379 518.203 371.815 517.919C372.253 517.633 372.763 517.49 373.347 517.49C373.802 517.49 374.212 517.574 374.577 517.743C374.942 517.911 375.241 518.147 375.474 518.45C375.707 518.753 375.852 519.107 375.908 519.511H374.914C374.838 519.216 374.67 518.955 374.409 518.728C374.15 518.498 373.802 518.383 373.364 518.383C372.977 518.383 372.637 518.484 372.345 518.686C372.056 518.885 371.83 519.167 371.667 519.532C371.507 519.894 371.427 520.32 371.427 520.808C371.427 521.308 371.506 521.743 371.663 522.114C371.823 522.484 372.048 522.772 372.337 522.977C372.629 523.182 372.971 523.284 373.364 523.284C373.623 523.284 373.857 523.24 374.068 523.15C374.278 523.06 374.456 522.931 374.602 522.762C374.748 522.594 374.852 522.392 374.914 522.156H375.908C375.852 522.538 375.713 522.882 375.491 523.188C375.272 523.491 374.981 523.732 374.619 523.912C374.26 524.089 373.842 524.177 373.364 524.177ZM378.032 517.574L379.582 520.219L381.132 517.574H382.277L380.189 520.808L382.277 524.042H381.132L379.582 521.533L378.032 524.042H376.887L378.942 520.808L376.887 517.574H378.032ZM386.057 524.177C385.473 524.177 384.961 524.038 384.52 523.76C384.082 523.482 383.739 523.094 383.492 522.594C383.248 522.094 383.126 521.51 383.126 520.842C383.126 520.168 383.248 519.58 383.492 519.077C383.739 518.575 384.082 518.185 384.52 517.907C384.961 517.629 385.473 517.49 386.057 517.49C386.641 517.49 387.152 517.629 387.59 517.907C388.031 518.185 388.373 518.575 388.617 519.077C388.864 519.58 388.988 520.168 388.988 520.842C388.988 521.51 388.864 522.094 388.617 522.594C388.373 523.094 388.031 523.482 387.59 523.76C387.152 524.038 386.641 524.177 386.057 524.177ZM386.057 523.284C386.5 523.284 386.865 523.171 387.152 522.943C387.438 522.716 387.65 522.417 387.788 522.046C387.925 521.676 387.994 521.274 387.994 520.842C387.994 520.41 387.925 520.007 387.788 519.633C387.65 519.26 387.438 518.958 387.152 518.728C386.865 518.498 386.5 518.383 386.057 518.383C385.613 518.383 385.248 518.498 384.962 518.728C384.676 518.958 384.464 519.26 384.326 519.633C384.188 520.007 384.12 520.41 384.12 520.842C384.12 521.274 384.188 521.676 384.326 522.046C384.464 522.417 384.676 522.716 384.962 522.943C385.248 523.171 385.613 523.284 386.057 523.284ZM389.814 525.895V523.116H390.353C390.485 522.978 390.599 522.83 390.694 522.67C390.79 522.51 390.873 522.32 390.943 522.101C391.016 521.879 391.078 521.61 391.128 521.293C391.179 520.973 391.224 520.586 391.263 520.134L391.482 517.574H395.592V523.116H396.586V525.895H395.592V524.042H390.808V525.895H389.814ZM391.482 523.116H394.598V518.501H392.408L392.24 520.134C392.17 520.811 392.083 521.402 391.979 521.907C391.875 522.413 391.709 522.816 391.482 523.116Z" fill="#7681AB"/>
</g>
<rect x="482.302" y="206.917" width="8.57721" height="8.57721" rx="3.05373" fill="#7681AB"/>
<rect x="498.345" y="206.917" width="8.57721" height="8.57721" rx="3.05373" fill="#7681AB"/>
<path d="M511.381 111.667H509.572V108.048C509.572 102.981 505.591 99 500.524 99C495.457 99 491.476 102.981 491.476 108.048V111.667H489.667C487.676 111.667 486.048 113.295 486.048 115.286V133.381C486.048 135.371 487.676 137 489.667 137H511.381C513.372 137 515 135.371 515 133.381V115.286C515 113.295 513.372 111.667 511.381 111.667ZM500.524 102.438C503.6 102.438 506.134 104.971 506.134 108.048V111.667H495.095V108.048H494.915C494.915 104.971 497.448 102.438 500.524 102.438ZM511.381 133.381H489.667V115.286H511.381V133.381ZM500.524 127.952C502.515 127.952 504.143 126.324 504.143 124.333C504.143 122.343 502.515 120.714 500.524 120.714C498.534 120.714 496.905 122.343 496.905 124.333C496.905 126.324 498.534 127.952 500.524 127.952Z" fill="white"/>
<path d="M103.719 554.186C103.555 552.538 102.854 551.257 101.614 550.344C100.374 549.432 98.6917 548.975 96.5665 548.975C95.1225 548.975 93.9032 549.18 92.9087 549.588C91.9142 549.983 91.1513 550.535 90.62 551.243C90.1024 551.952 89.8435 552.756 89.8435 553.655C89.8163 554.404 89.973 555.058 90.3135 555.616C90.6677 556.175 91.1513 556.659 91.7644 557.067C92.3774 557.462 93.0858 557.81 93.8896 558.109C94.6933 558.396 95.5516 558.641 96.4643 558.845L100.224 559.744C102.05 560.153 103.725 560.698 105.251 561.379C106.777 562.06 108.098 562.898 109.215 563.892C110.333 564.887 111.198 566.058 111.811 567.407C112.437 568.756 112.757 570.302 112.771 572.046C112.757 574.607 112.104 576.827 110.809 578.707C109.529 580.574 107.676 582.025 105.251 583.06C102.84 584.082 99.9314 584.593 96.5256 584.593C93.1471 584.593 90.2045 584.075 87.6979 583.04C85.2049 582.004 83.2568 580.472 81.8536 578.442C80.4641 576.398 79.7352 573.871 79.6671 570.861H88.2292C88.3246 572.264 88.7264 573.435 89.4348 574.375C90.1569 575.302 91.1173 576.003 92.3161 576.48C93.5286 576.943 94.8977 577.175 96.4235 577.175C97.922 577.175 99.223 576.957 100.326 576.521C101.444 576.085 102.309 575.479 102.922 574.702C103.535 573.926 103.841 573.033 103.841 572.025C103.841 571.085 103.562 570.295 103.003 569.655C102.458 569.015 101.655 568.47 100.592 568.02C99.5431 567.571 98.2558 567.162 96.73 566.794L92.1731 565.65C88.6447 564.792 85.8588 563.45 83.8153 561.624C81.7719 559.799 80.757 557.34 80.7706 554.247C80.757 551.713 81.4313 549.5 82.7936 547.606C84.1695 545.712 86.0563 544.234 88.454 543.172C90.8516 542.109 93.5762 541.578 96.6278 541.578C99.7339 541.578 102.445 542.109 104.761 543.172C107.09 544.234 108.902 545.712 110.196 547.606C111.491 549.5 112.158 551.693 112.199 554.186H103.719ZM117.129 549.445V542.15H151.5V549.445H138.687V584H129.941V549.445H117.129ZM193.707 563.075C193.707 567.639 192.842 571.521 191.112 574.723C189.396 577.924 187.052 580.369 184.083 582.059C181.126 583.734 177.802 584.572 174.11 584.572C170.391 584.572 167.054 583.728 164.098 582.038C161.141 580.349 158.805 577.904 157.089 574.702C155.372 571.501 154.514 567.625 154.514 563.075C154.514 558.511 155.372 554.629 157.089 551.427C158.805 548.226 161.141 545.787 164.098 544.112C167.054 542.423 170.391 541.578 174.11 541.578C177.802 541.578 181.126 542.423 184.083 544.112C187.052 545.787 189.396 548.226 191.112 551.427C192.842 554.629 193.707 558.511 193.707 563.075ZM184.736 563.075C184.736 560.119 184.294 557.626 183.408 555.596C182.536 553.566 181.303 552.027 179.71 550.978C178.116 549.929 176.249 549.404 174.11 549.404C171.972 549.404 170.105 549.929 168.511 550.978C166.918 552.027 165.678 553.566 164.792 555.596C163.92 557.626 163.485 560.119 163.485 563.075C163.485 566.031 163.92 568.524 164.792 570.554C165.678 572.584 166.918 574.123 168.511 575.172C170.105 576.221 171.972 576.746 174.11 576.746C176.249 576.746 178.116 576.221 179.71 575.172C181.303 574.123 182.536 572.584 183.408 570.554C184.294 568.524 184.736 566.031 184.736 563.075ZM200.262 584V542.15H216.773C219.933 542.15 222.631 542.715 224.865 543.846C227.113 544.963 228.822 546.55 229.994 548.607C231.179 550.651 231.772 553.055 231.772 555.821C231.772 558.6 231.172 560.991 229.973 562.993C228.775 564.982 227.038 566.508 224.763 567.571C222.501 568.633 219.763 569.165 216.548 569.165H205.493V562.053H215.117C216.807 562.053 218.21 561.822 219.327 561.359C220.444 560.895 221.275 560.201 221.82 559.274C222.379 558.348 222.658 557.197 222.658 555.821C222.658 554.431 222.379 553.26 221.82 552.306C221.275 551.352 220.437 550.63 219.307 550.14C218.189 549.636 216.78 549.384 215.077 549.384H209.11V584H200.262ZM222.862 564.955L233.263 584H223.496L213.319 564.955H222.862ZM238.025 584V542.15H266.224V549.445H246.873V559.417H264.773V566.712H246.873V576.705H266.306V584H238.025Z" fill="white"/>
<defs>
<filter id="filter0_d_707_330" x="63.7497" y="292.55" width="217.16" height="251.201" filterUnits="userSpaceOnUse" color-interpolation-filters="sRGB">
<feFlood flood-opacity="0" result="BackgroundImageFix"/>
<feColorMatrix in="SourceAlpha" type="matrix" values="0 0 0 0 0 0 0 0 0 0 0 0 0 0 0 0 0 0 127 0" result="hardAlpha"/>
<feOffset dy="4.33103"/>
<feGaussianBlur stdDeviation="17.4479"/>
<feColorMatrix type="matrix" values="0 0 0 0 0.196615 0 0 0 0 0.286729 0 0 0 0 0.629167 0 0 0 0.15 0"/>
<feBlend mode="normal" in2="BackgroundImageFix" result="effect1_dropShadow_707_330"/>
<feBlend mode="normal" in="SourceGraphic" in2="effect1_dropShadow_707_330" result="shape"/>
</filter>
<filter id="filter1_d_707_330" x="71.1789" y="286.026" width="216.665" height="250.706" filterUnits="userSpaceOnUse" color-interpolation-filters="sRGB">
<feFlood flood-opacity="0" result="BackgroundImageFix"/>
<feColorMatrix in="SourceAlpha" type="matrix" values="0 0 0 0 0 0 0 0 0 0 0 0 0 0 0 0 0 0 127 0" result="hardAlpha"/>
<feOffset dy="4.33103"/>
<feGaussianBlur stdDeviation="17.3241"/>
<feColorMatrix type="matrix" values="0 0 0 0 0.444583 0 0 0 0 0.354167 0 0 0 0 1 0 0 0 0.6 0"/>
<feBlend mode="normal" in2="BackgroundImageFix" result="effect1_dropShadow_707_330"/>
<feBlend mode="normal" in="SourceGraphic" in2="effect1_dropShadow_707_330" result="shape"/>
</filter>
<filter id="filter2_d_707_330" x="0.381063" y="225.699" width="194.526" height="95.3695" filterUnits="userSpaceOnUse" color-interpolation-filters="sRGB">
<feFlood flood-opacity="0" result="BackgroundImageFix"/>
<feColorMatrix in="SourceAlpha" type="matrix" values="0 0 0 0 0 0 0 0 0 0 0 0 0 0 0 0 0 0 127 0" result="hardAlpha"/>
<feOffset dy="13.4257"/>
<feGaussianBlur stdDeviation="13.4257"/>
<feColorMatrix type="matrix" values="0 0 0 0 0 0 0 0 0 0.0375546 0 0 0 0 0.187773 0 0 0 0.14 0"/>
<feBlend mode="normal" in2="BackgroundImageFix" result="effect1_dropShadow_707_330"/>
<feBlend mode="normal" in="SourceGraphic" in2="effect1_dropShadow_707_330" result="shape"/>
</filter>
<filter id="filter3_d_707_330" x="293.318" y="368.976" width="260.475" height="302.987" filterUnits="userSpaceOnUse" color-interpolation-filters="sRGB">
<feFlood flood-opacity="0" result="BackgroundImageFix"/>
<feColorMatrix in="SourceAlpha" type="matrix" values="0 0 0 0 0 0 0 0 0 0 0 0 0 0 0 0 0 0 127 0" result="hardAlpha"/>
<feOffset dy="4.74351"/>
<feGaussianBlur stdDeviation="19.1096"/>
<feColorMatrix type="matrix" values="0 0 0 0 0.196615 0 0 0 0 0.286729 0 0 0 0 0.629167 0 0 0 0.15 0"/>
<feBlend mode="normal" in2="BackgroundImageFix" result="effect1_dropShadow_707_330"/>
<feBlend mode="normal" in="SourceGraphic" in2="effect1_dropShadow_707_330" result="shape"/>
</filter>
<filter id="filter4_d_707_330" x="302.821" y="359.012" width="259.933" height="302.445" filterUnits="userSpaceOnUse" color-interpolation-filters="sRGB">
<feFlood flood-opacity="0" result="BackgroundImageFix"/>
<feColorMatrix in="SourceAlpha" type="matrix" values="0 0 0 0 0 0 0 0 0 0 0 0 0 0 0 0 0 0 127 0" result="hardAlpha"/>
<feOffset dy="4.74351"/>
<feGaussianBlur stdDeviation="18.974"/>
<feColorMatrix type="matrix" values="0 0 0 0 0.354167 0 0 0 0 0.488715 0 0 0 0 1 0 0 0 0.6 0"/>
<feBlend mode="normal" in2="BackgroundImageFix" result="effect1_dropShadow_707_330"/>
<feBlend mode="normal" in="SourceGraphic" in2="effect1_dropShadow_707_330" result="shape"/>
</filter>
</defs>
</svg>
