<svg preserveAspectRatio="none" overflow="visible" style="display: block;" width="168.867" height="46.8589" viewBox="0 0 168.867 46.8589" fill="none" xmlns="http://www.w3.org/2000/svg">
<g id="Logo" opacity="0.85">
<path id="Vector" d="M0 24.7037C9.44716 24.5096 25.6043 24.61 35.4165 24.7007C37.3358 24.7188 38.4279 26.7073 37.4381 28.2232C33.9464 33.5741 29.4466 38.6677 23.6721 45.8073L23.6622 45.8192L23.6538 45.8311C23.4254 46.1409 23.304 46.4996 23.2658 46.8589C16.0984 46.4768 10.5217 44.1712 6.53589 39.9414C2.47369 35.6307 0.296322 30.5514 0 24.7037ZM29.8536 0.15886C36.233 0.780983 41.2475 2.95315 44.8973 6.67726C49.2788 11.0588 51.4699 16.6033 51.4699 23.3098C51.4691 29.7479 49.1894 35.2916 44.6293 39.9414C40.7061 44.0213 35.3028 46.3102 28.4202 46.8104C31.9661 41.6473 35.4723 37.3744 38.4096 33.8198C40.0195 31.8716 41.4667 30.1287 42.6467 28.5797C43.8205 27.0385 44.7576 25.6528 45.3349 24.4136C45.561 24.0136 45.6931 23.5157 45.7405 23.0383C45.7901 22.5379 45.7565 21.9853 45.587 21.5086C45.3105 20.7267 44.8362 19.9645 44.8232 19.9446L44.8202 19.9394L44.1993 18.9735C41.123 14.2306 38.4111 10.7758 35.7854 7.55064C33.7929 5.1027 31.8615 2.79751 29.8536 0.15886ZM24.2564 0C29.678 6.34924 33.1353 10.4253 37.2036 16.839C38.2263 18.4527 37.0677 20.5569 35.1141 20.5748C25.0804 20.6653 8.80031 20.7674 0.100056 20.5853C0.645349 15.2376 2.83491 10.6463 6.66953 6.81152C8.88431 4.55268 11.5711 2.85387 14.729 1.71388C14.6611 2.25763 14.8222 2.8276 15.2392 3.28682L15.2682 3.31889L15.301 3.34723C16.678 4.51686 17.3669 5.25682 18.4743 6.84062L18.4995 6.87567L18.5285 6.90698C19.3128 7.77044 20.6868 7.8863 21.6261 7.20384C22.6083 6.48999 22.7824 5.14402 21.9561 4.23474L21.9515 4.22955L21.9469 4.22504L20.9052 3.11529C19.9964 2.13872 19.4274 1.49734 18.6797 0.628721L18.6782 0.627232C20.4225 0.281551 22.2814 0.0724308 24.2564 0Z" fill="#FAFAF9"/>
<path id="Vector_2" d="M148.279 12.7379C148.279 11.8917 148.964 11.2057 149.811 11.2057C150.514 11.2057 151.126 11.6842 151.298 12.3662L151.723 14.0684C151.74 14.1353 151.8 14.1823 151.869 14.1823C151.919 14.1823 151.967 14.1567 151.995 14.1147C152.749 12.9905 153.709 12.1366 154.877 11.553C156.101 10.9246 157.49 10.6103 159.044 10.6103C162.352 10.6103 164.815 11.586 166.436 13.5373C168.056 15.4887 168.867 18.6803 168.867 23.1121C168.867 25.1958 168.586 27.081 168.024 28.7677C167.494 30.4214 166.734 31.827 165.742 32.9846C164.749 34.1421 163.542 35.0352 162.12 35.6635C160.731 36.2919 159.176 36.6061 157.456 36.6061C156.233 36.6061 155.257 36.5234 154.53 36.3581C153.416 36.146 152.248 36.886 152.248 38.0193V43.9484C152.248 45.0444 151.359 45.9329 150.263 45.9329C149.167 45.9329 148.279 45.0444 148.279 43.9484V12.7379ZM158.3 14.0831C156.613 14.0831 155.273 14.5295 154.281 15.4226C153.563 16.0663 153.003 16.9695 152.6 18.1322C152.316 18.9538 152.248 19.83 152.248 20.6996V29.376C152.248 30.839 152.9 32.3055 154.281 32.7861C155.042 33.0177 156.051 33.1334 157.308 33.1334C159.59 33.1334 161.392 32.2901 162.715 30.6032C164.071 28.8834 164.749 26.3699 164.749 23.0625C164.749 21.7065 164.634 20.4828 164.402 19.3914C164.171 18.2669 163.79 17.3243 163.261 16.5636C162.765 15.7698 162.103 15.1579 161.276 14.728C160.483 14.2981 159.491 14.0831 158.3 14.0831Z" fill="#FAFAF9"/>
<path id="Vector_3" d="M143.584 12.9651C143.34 14.0668 142.195 14.684 141.073 14.5698C140.812 14.5432 140.554 14.5299 140.301 14.5299C138.879 14.5299 137.755 14.9268 136.927 15.7205C136.334 16.267 135.902 16.9244 135.632 17.6927C135.415 18.3121 135.39 18.9775 135.39 19.6339V34.0267C135.39 35.1227 134.501 36.0112 133.405 36.0112C132.309 36.0112 131.421 35.1227 131.421 34.0267V12.7634C131.421 11.9033 132.118 11.206 132.978 11.206C133.695 11.206 134.319 11.6954 134.49 12.3915L134.916 14.122C134.932 14.1868 134.99 14.2322 135.057 14.2322C135.109 14.2322 135.157 14.2037 135.183 14.1581C135.803 13.0699 136.533 12.2347 137.374 11.6525C138.267 11.0241 139.392 10.7099 140.748 10.7099C141.209 10.7099 141.698 10.7482 142.212 10.8248C143.212 10.9734 143.802 11.9787 143.584 12.9651Z" fill="#FAFAF9"/>
<path id="Vector_4" d="M118.99 13.1899C118.99 12.0939 119.878 11.2055 120.974 11.2055C122.07 11.2055 122.959 12.0939 122.959 13.1899V34.0261C122.959 35.1221 122.07 36.0106 120.974 36.0106C119.878 36.0106 118.99 35.1222 118.99 34.0261V13.1899Z" fill="#FAFAF9"/>
<path id="Vector_5" d="M117.152 7.36508C116.22 7.16369 115.617 6.58991 115.279 5.84559C114.941 5.10135 115.01 4.32832 115.486 3.52657C116.009 2.70367 116.828 2.03918 117.942 1.53301C119.057 1.02683 120.119 0.837163 121.129 0.964024C122.139 1.09088 123.066 1.66647 123.403 2.41078C123.742 3.15502 123.803 4.38636 123.248 5.26265C122.496 6.24143 121.489 6.12305 120.374 6.62924C119.26 7.13536 118.145 7.5777 117.152 7.36508Z" fill="#FAFAF9"/>
<path id="Vector_6" d="M108.918 36.011C107.822 36.011 106.934 35.1226 106.934 34.0267V21.8721C106.934 20.5823 106.852 19.4578 106.686 18.4987C106.554 17.5064 106.289 16.6961 105.892 16.0677C105.495 15.4063 104.95 14.9102 104.255 14.5794C103.594 14.2487 102.718 14.0833 101.625 14.0833C100.071 14.0833 98.666 14.596 97.4089 15.6213C96.5085 16.3318 95.838 17.1951 95.3958 18.211C95.0384 19.0326 94.978 19.9431 94.978 20.8389V34.0267C94.978 35.1226 94.0899 36.011 92.9939 36.011C91.898 36.011 91.009 35.1226 91.009 34.0267V3.26833C91.009 2.17232 91.898 1.28388 92.9939 1.28388C94.0899 1.28388 94.978 2.17232 94.978 3.26833V13.8488C94.978 13.9235 95.0384 13.9841 95.1132 13.9841C95.1537 13.9841 95.1911 13.9663 95.2171 13.9358C96.0686 12.9334 97.0805 12.1392 98.2521 11.5532C99.4763 10.9248 100.981 10.6106 102.767 10.6106C104.156 10.6106 105.363 10.776 106.389 11.1067C107.414 11.4043 108.257 11.9501 108.918 12.7438C109.613 13.5376 110.109 14.6125 110.407 15.9685C110.737 17.2914 110.903 18.9782 110.903 21.0288V34.0267C110.903 35.1226 110.015 36.011 108.918 36.011Z" fill="#FAFAF9"/>
<path id="Vector_7" d="M85.0551 33.2261C85.3422 33.8983 85.133 34.6913 84.4915 35.0407C83.7491 35.4449 82.9258 35.7683 82.0224 36.0108C80.666 36.4077 79.244 36.6061 77.7555 36.6061C75.8378 36.6061 74.2172 36.3084 72.8937 35.7131C71.5709 35.0847 70.4796 34.2083 69.6196 33.0838C68.7925 31.9262 68.1808 30.5537 67.7844 28.9661C67.4201 27.3455 67.2383 25.5596 67.2383 23.6082C67.2383 19.4079 68.1647 16.1998 70.0167 13.9839C71.8688 11.7348 74.5311 10.6103 78.0037 10.6103C79.5915 10.6103 80.931 10.7427 82.0224 11.0072C82.6058 11.1274 83.1588 11.2788 83.6796 11.4614C84.4899 11.7451 84.8489 12.6488 84.577 13.4632C84.2303 14.5043 83.0121 14.966 81.9636 14.643C81.7719 14.5841 81.5763 14.5297 81.377 14.48C80.4514 14.2154 79.4593 14.0831 78.4008 14.0831C73.704 14.0831 71.3563 17.2582 71.3563 23.6082C71.3563 24.8651 71.4716 26.0722 71.703 27.2298C71.968 28.3543 72.3812 29.363 72.9433 30.256C73.539 31.1159 74.2997 31.8104 75.2253 32.3396C76.1845 32.8688 77.3591 33.1334 78.7483 33.1334C79.939 33.1334 80.9967 32.9515 81.9231 32.5877C82.1186 32.5135 82.3065 32.4373 82.4867 32.359C83.4337 31.9482 84.6511 32.2768 85.0551 33.2261Z" fill="#FAFAF9"/>
</g>
</svg>
